<?xml version="1.0" standalone="no"?><!DOCTYPE svg PUBLIC "-//W3C//DTD SVG 1.1//EN" "http://www.w3.org/Graphics/SVG/1.1/DTD/svg11.dtd"><svg t="1497945368491" class="icon" style="" viewBox="0 0 1024 1024" version="1.1" xmlns="http://www.w3.org/2000/svg" p-id="2373" xmlns:xlink="http://www.w3.org/1999/xlink" width="1600" height="1600"><defs><style type="text/css">html, * { user-select: text !important; }
</style></defs><path d="M397.116995 580.446905l-1.004887 0.00921c-1.410116 0-2.822278-1.255597-4.649903-2.676969-1.827625-1.397836-3.257184-4.078899-6.200212-4.227278-2.960425-0.130983-2.960425-1.544169-4.66116-1.688455-0.480954-0.031722-1.019213-0.061398-1.550309-0.061398-1.306762 0-2.619664 0.104377-3.527336 0.206708l-0.106424 0.007163c-1.100054 0-0.450255-1.866511-0.722454-2.40477-0.279363-0.563842-5.928013-4.220115-5.928013-4.220115s-2.117221-0.291642-3.662413-0.576121c-1.554402-0.279363-2.255367-1.547239-3.660366-4.929266-1.421372-3.38919-0.843204-2.538823-0.9967-3.105734-0.137123-0.565888-2.24718-8.172123-3.802606-9.865695-0.662079-0.726547-1.530866-0.930185-2.410909-0.930185-1.177825 0-2.359744 0.36225-3.090385 0.36225-1.269923 0-5.626137-2.385327-6.196119-2.685155-0.563842-0.271176-6.338359-3.092431-7.338129-4.77577-0.992607-1.692548-1.955538-3.242857-2.532683-6.211469-0.556679-2.949168-2.538823-1.822508-9.295714-3.797489-1.795902-0.532119-2.989077-0.720408-3.78214-0.720408-2.217505 0-1.410116 1.506307-2.146896 1.691525l-0.340761 0.047072c-1.170662 0-3.497661-1.069355-3.879354-1.444908-0.432859-0.411369-3.520173-2.816139-3.520173-2.816139-0.856507 0.556679-1.700735 0.843204-1.700735 0.843204l-1.417279 6.633071c0 0-0.159636 1.301645-0.732687 1.301645l-0.669242-0.465604c-1.12359-1.410116 2.114151-10.567683 2.114151-10.567683-0.984421 0.700965-2.114151 1.692548-2.958378 1.979074-0.857531 0.276293-5.91471 2.108011-6.334265 3.243881-0.427742 1.122567-2.547009 2.802836-7.055696 2.802836-4.497431 0-4.790096 1.562589-5.777587 1.977028l-0.61296 0.097214c-1.325182 0-3.76372-0.877997-5.305843-2.073218-1.833765-1.412163-2.669806-9.152451-2.812045-10.275018-0.149403-1.13894-2.687202-7.90504-3.952009-10.150174-0.381693-0.690732-0.928139-0.928139-1.535983-0.928139-1.406023 0-3.166109 1.278109-4.242627 1.483794-0.597611 0.103354-1.24741 0.255827-1.856277 0.255827-0.948605 0-1.720178-0.378623-1.816369-1.947352-0.134053-2.527566 0.712221-5.496178 0.853437-7.330966 0.145309-1.827625 1.402953-4.228301 2.102894-5.499248 0.715291-1.264806-0.845251-3.941775-1.958608-4.78498l-0.574075-0.176009c-1.300622 0-3.399423 1.921769-4.366448 3.134387-1.127683 1.406023-0.708128 3.382027-1.127683 4.517897-0.413416 1.125637-4.517897 2.665713-5.502317 2.950192-0.325411 0.098237-0.779759 0.12689-1.302669 0.12689-1.020236 0-2.307555-0.12689-3.343141-0.12689-1.551332 0-3.102664-4.793166-4.087085-5.91471-0.983397-1.136893-1.979074-5.64558-2.258437-6.480598-0.283456-0.846274 0-7.061836-0.137123-8.325619-0.146333-1.257643 0.282433-4.937452-0.146333-6.477528-0.417509-1.548262 3.668553-5.641487 5.503341-6.912433 1.260713-0.867764 3.059686-1.682315 5.582135-1.682315 1.125637 0 2.422166 0.166799 3.866051 0.559748 0.541329 0.148379 1.063215 0.214894 1.540076 0.214894 3.595898 0 5.372358-3.685949 6.490831-4.306072l0.471744-0.095167c1.938142 0 7.515161 3.006474 8.549723 3.90289 1.128707 0.978281 4.074805 4.929266 5.070482 7.603165 0.959861 2.602268 4.298909 4.809539 6.040576 4.809539l0.152473-0.005117c1.700735-0.150426-1.260713-8.599865-1.260713-10.29753 0-1.689479-1.972934-4.503571-2.25946-4.933359-0.280386-0.421602-0.14224-3.098571 3.25002-10.853186 1.191128-2.736321 2.197038-3.489474 3.069919-3.489474 0.536212 0 1.017166 0.280386 1.473561 0.563842 0.454348 0.270153 0.874927 0.558725 1.296529 0.558725 0.408299 0 0.807389-0.299829 1.201361-1.161453 1.827625-3.944845 3.097548-6.895037 1.976004-9.157567-1.125637-2.241041 2.252297-4.790096 2.542916-5.92392 0.273223-1.12052 3.373841-3.65525 8.035-4.789073 4.64581-1.125637 4.362354-1.550309 7.325849-5.77861 2.716878-3.875261-0.969071-5.975085 0.036839-5.975085l0.388856 0.057305c2.095731 0.421602 3.236718 0.705058 9.578146 0.705058 6.332219 0 8.165983-6.764054 8.165983-6.764054s-1.540076-1.270946-2.38942-2.111081c-0.851391-0.856507-2.677992-3.671623-4.508687-5.212722-0.690732-0.591471-1.39886-0.7552-2.13564-0.7552-0.453325 0-0.920976 0.064468-1.387603 0.132006-0.473791 0.064468-0.939395 0.135076-1.417279 0.135076l-0.839111-0.089028c-1.971911-0.418532-3.37998-4.366448-0.578168-6.624884 0.907673-0.709151 2.295276-0.942465 3.942799-0.942465 1.459235 0 3.137457 0.191358 4.838192 0.370437 1.685385 0.188288 3.3984 0.379647 4.957919 0.379647 0.583285 0 1.1328-0.027629 1.653663-0.083911 4.925173-0.563842 5.212722-2.676969 8.16189-3.945869 0.48607-0.218988 0.817622-0.299829 1.051959-0.299829 1.175779 0-0.608867 2.403746-1.197268 3.827165-0.708128 1.685385-1.409093 2.393513-4.780887 7.319709-2.524496 3.686972-1.526773 4.146437-0.859577 4.146437l0.413416-0.056282 12.707416-3.944845c0 0-0.708128-4.932336-1.562589-5.641487-0.842181-0.697895 0.149403-5.633301 0.421602-6.618744 0.286526-0.988514 0.998747-2.40477 0.708128-3.527336-0.276293-1.122567-1.971911-4.508687-3.520173-6.194072-1.548262-1.703805-10.149151-5.499248-10.999518-6.635117-0.836041-1.12359-1.122567-6.342452-2.248204-9.020444-1.12359-2.673899-5.500271-3.378957-6.209422-3.51608l-0.077771-0.00307c-0.644683 0-0.916882 1.537006-4.284583 4.514827-0.932232 0.818645-1.636267 1.12973-2.168386 1.12973-1.487887 0-1.728364-2.453888-2.344395-3.38919-0.842181-1.266853-1.971911-1.692548-5.212722-5.77861-1.367137-1.715061-2.330068-2.114151-3.448542-2.114151-0.483001 0-0.99977 0.069585-1.581008 0.151449-0.600681 0.071631-1.266853 0.151449-2.052752 0.151449-0.928139 0-2.01489-0.105401-3.363607-0.440022-2.342348-0.586354-3.210112-0.777713-3.722788-0.777713-0.871857 0-0.786922 0.49528-4.717442 0.49528-6.342452 0-0.850367 3.378957-2.128477 5.350868-1.25662 1.980097 0.716314 3.947915 1.841951 5.350868 1.12666 1.413186 0.559748 1.413186 2.399653 6.204305 1.828648 4.795213-0.706081 2.4017-2.541893 6.062066-1.257643 2.508123-2.106987 2.901073-2.518357 2.901073l-0.299829-0.074701c0 0 0.413416 1.122567 1.11745 5.630231 0.716314 4.511757 0 1.547239-0.704035 4.093225-0.413416 1.51961-0.73678 1.672082-1.472538 1.672082l-0.297782 0-0.336668-0.01842c-0.403183 0-0.906649 0.031722-1.544169 0.176009-0.593518 0.130983-0.959861 0.184195-1.174756 0.184195-0.732687 0 0.064468-0.597611-0.800225-1.037632-1.1328-0.558725-3.952009-5.779633-6.203282-9.160637-2.249227-3.37998-1.823532-2.813069-4.084015-4.094248-2.25639-1.25662-3.251044-1.119497-7.206122-2.669806-3.931542-1.551332-3.368724-0.279363-7.879458-1.397836-4.508687-1.144056-3.378957-2.827395-4.514827-4.243651-1.12666-1.406023-2.954285-4.504594-3.803629-5.77247-0.851391-1.2689-1.2689-4.64888-1.2689-4.64888s1.542122-1.27197 3.810792-2.25639c2.257413-0.991584 4.653997-3.51915 6.199189-6.204305 0.583285-0.994654 0.918929-1.306762 1.334391-1.306762 0.705058 0 1.589195 0.87902 4.167926 0.87902 4.092201 0 5.910617-7.04444 5.910617-7.04444s5.641487-2.113127 6.205329-2.113127c0.566912 0 4.231371-0.842181 5.637394-1.830695 1.413186-0.988514-0.980327-3.38305-1.836835-4.943592-0.850367-1.537006 2.400676-3.230578 3.251044-3.371794 0.856507-0.14224 3.944845-3.113921 4.926196-3.526313l0.280386-0.061398c0.820692 0 1.306762 1.674129 1.565658 2.178619 0.271176 0.562818 0 0 10.284227 3.109828 10.287297 3.094478 3.511987 2.524496 5.076622 3.094478 1.543146 0.562818-1.419326 3.102664-2.25946 4.370541-0.835018 1.267876-4.369517 4.504594-7.748475 4.926196-3.382027 0.431835-2.25946 2.681062-2.25946 2.681062s5.638417 0 6.770194 0c1.119497 0 2.25025 1.550309 6.063089 2.960425 3.789303 1.39886 3.942799 1.558495 5.77247 3.243881 0.729617 0.679475 2.093684 0.873903 3.471055 0.873903 2.064009 0 4.136204-0.452301 4.136204-0.452301s-2.53166-1.267876-3.952009-2.539846c-0.892323-0.813528-0.286526-1.154289 0.701988-1.154289 0.551562 0 1.232061 0.113587 1.845021 0.309038 0.286526 0.098237 0.618077 0.132006 0.995677 0.132006 1.819438 0 4.362354-0.971118 4.362354-0.971118s-0.984421-2.818185-2.396583-3.526313c-1.413186-0.705058-4.374634-3.244904-4.933359-5.634324-0.233314-0.966001 0.127913-1.334391 0.718361-1.334391 0.868787 0 2.207271 0.824785 2.802836 1.75497 0.973164 1.515516 5.845125 4.507664 6.848988 4.507664l0.060375 0c0.848321-0.134053 2.527566-2.953262 3.52836-3.803629 0.979304-0.846274 4.927219-1.833765 0.274246-2.953262-4.65195-1.140986-5.499248-2.691295-9.298783-3.672646-3.810792-0.994654-4.514827-1.699712-5.924943-3.802606-1.410116-2.118244-2.673899-3.240811-2.673899-3.240811s-2.545986-1.416256-3.805676-2.263553c-1.27504-0.842181-4.514827-3.944845-10.580986-4.086062-6.058996-0.146333-2.240017 0-8.441253-0.846274-6.205329-0.839111-3.102664-1.838881-4.222161-3.105734-0.382717-0.414439-0.913812-0.559748-1.52268-0.559748-1.191128 0-2.677992 0.559748-3.711532 0.559748-1.537006 0-1.267876 0.431835-4.783956 1.976004-1.264806 0.555655-1.922792 0.729617-2.255367 0.729617-0.608867 0-0.149403-0.591471-0.149403-0.591471s-0.976234-2.387373-3.65525-2.387373c-2.684132 0-4.922103 1.976004-5.636371 2.538823-0.701988 0.559748 1.264806 6.480598 2.815115 7.453762 1.554402 1.00284 3.947915 1.981121 4.225231 3.676739 0.26913 1.551332-1.025353 2.988054-3.76986 2.988054l-0.750083-0.023536c-3.222391-0.286526-4.218068-0.847298-5.481851-1.692548-1.267876-0.852414-1.693572-2.117221-3.095501-4.51278-1.401929-2.403746-1.706875-3.943822-5.078669-4.797259-0.685615-0.166799-1.295506-0.23843-1.833765-0.23843-2.121314 0-3.162016 1.140986-3.385097 1.938142-0.276293 0.980327 2.52859 5.77554 2.52859 5.77554l-0.093121 0.010233c-0.265036 0-0.831948-0.180102-1.826602-0.36532-1.013073-0.183172-2.465145-0.364297-4.527107-0.364297l-1.01205 0.014326c-5.220908 0.141216 0.283456 1.554402 0.138146 4.075829-0.066515 1.154289-0.620124 1.419326-1.37737 1.419326l-1.01205-0.092098c-0.36532-0.038886-0.748037-0.084934-1.12359-0.084934-0.3776 0-0.77055 0.046049-1.143033 0.180102-0.49528 0.177032-1.312902 0.248663-2.295276 0.248663-2.783393 0-6.919597-0.566912-9.107425-0.680499l-0.850367-0.014326c-2.350534 0-3.388167 0.545422-4.65195 1.430582-0.444115 0.303922-1.125637 0.460488-2.185782 0.460488-2.365884 0-6.619768-0.778736-14.309914-2.432399-4.854565-1.044796-6.335289-1.339508-6.451946-1.339508l1.940189 0.490164c0 0-10.003841-1.834788-13.527085-3.66139-1.480724-0.768503-2.288113-0.988514-2.727111-0.988514-0.617054 0-0.521886 0.431835-0.521886 0.431835s-1.406023 0.691755-4.787026 1.679245c-1.179872 0.350994-1.958608 0.467651-2.560312 0.467651-1.1328 0-1.604544-0.418532-2.796696-0.60989-1.827625-0.275269-0.87902-2.456958-5.000897-2.570545l-0.587378 0c-3.679809 0-5.092995 0.970094-8.601912 1.162476-3.712555 0.211824-9.090029 2.114151-10.571776 2.439562l-0.456395 0.030699c-2.117221 0-8.374738-1.62194-11.385305-2.885723-3.282766-1.384533-17.129122-1.384533-17.872043-2.018983-0.740874-0.633427-14.374382-0.51984-19.764136-0.633427-5.389754-0.099261-3.172249-0.315178-3.806699-0.315178-0.63752 0-6.236028 0.427742-6.877641 0.850367-0.6191 0.427742-3.802606 1.904373-6.016017 3.169179-2.223644 1.263783-9.833973 3.175319-9.833973 3.175319s1.165546 0.209778 2.65241 0.313132c1.466398 0.112564 1.680269 0.852414 4.016477 3.692089 2.322905 2.862187 3.792373 3.282766 3.477194 3.501754-0.312108 0.202615-2.957355 0.202615-5.064342 0.202615-2.111081 0-2.340301 0.220011-5.40408 0.315178-3.056616 0.106424-2.641153 1.806135-2.843768 2.861164-0.212848 1.051959 0.945535 1.480724 3.067872 2.638083 0.491187 0.277316 0.959861 0.38681 1.412163 0.38681 1.477654 0 2.804882-1.162476 4.504594-1.650593 0.546446-0.158612 0.945535-0.215918 1.321088-0.215918 1.13587 0 1.969864 0.563842 5.556553 0.63445 4.745071 0.109494 0.417509 2.223644-0.116657 4.230348-0.531096 2.00875-3.910053 0.847298-7.188726 1.902326-3.275603 1.050935-3.697205 1.905396-5.92085 3.279696-2.213411 1.369184 3.385097 4.323469 6.554276 5.176906 3.180436 0.847298 7.089465 3.492544 12.05864 3.492544 4.967128 0 3.162016 1.37737 2.957355 2.857071-0.220011 1.469468-1.587148 2.430352-2.957355 4.433986-1.3743 2.007727-5.503341 2.534729-7.079232 3.179412-1.586125 0.626263-4.125971 2.740414-5.078669 3.374864-0.952698 0.633427-5.814426 2.216481-8.353248 2.854001-2.538823 0.647753-4.02364 2.114151-4.872984 2.957355l-0.024559 0.417509c0.431835 0 1.529843-0.424672 2.358721-0.836041 1.266853-0.64059 5.704932-1.276063 10.573823-4.124947 4.854565-2.854001 10.775414-5.287423 16.071024-7.29208 5.276167-2.010797 4.652973-2.534729 7.924483-4.869914 3.279696-2.318812 1.476631-3.063779 2.007727-5.071506 0.534166-2.007727 0.638543-1.161453 2.220574-3.059686 0.50756-0.604774 1.060145-0.843204 1.587148-0.843204 1.1328 0 2.145873 1.073448 2.210341 1.802042 0.119727 1.052982-3.364631 3.2623-3.364631 3.584642 0 0.095167 0.265036 0.163729 0.693802 0.163729 0.962931 0 2.708692-0.347924 3.952009-1.430582 0.871857-0.772596 2.38021-0.962931 4.139274-0.962931 1.86958 0 4.02978 0.220011 6.001691 0.220011 3.803629 0 8.981559 1.688455 11.839653 2.121314 2.858094 0.413416 7.602142 4.437056 8.973372 4.652973 1.384533 0.197498 2.433422 0.835018 5.727445 2.316765 3.267417 1.479701 2.325975 2.329045 4.00829 4.65195 1.699712 2.318812 0.955768 2.318812 2.648316 6.866385 1.685385 4.554736 2.437515 4.868891 4.229325 5.606695 0.382717 0.158612 0.608867 0.233314 0.718361 0.233314 0.375553 0-0.76134-0.952698-0.925069-2.029216-0.218988-1.3743-0.325411-2.747577-0.961908-5.180999-0.62217-2.432399-1.048889-3.920286-0.099261-4.865821l0.410346-0.254803c0.512676 0 0.765433 1.845021 3.711532 6.179746 3.582595 5.287423 1.904373 1.901303 3.39226 4.429893 1.472538 2.539846 2.003634 3.602038 1.260713 5.40101-0.743944 1.794879 2.219551 2.439562 3.26844 3.597945 1.072425 1.162476 2.219551 3.162016 3.176342 5.599532 0.945535 2.433422 1.154289 2.953262 2.641153 5.503341 1.480724 2.532683 1.689479 7.287987 1.689479 10.670014 0 3.381004-1.575892 5.598508-1.476631 7.921413 0.109494 2.330068 1.476631 2.971681 4.221138 10.157337 2.758834 7.188726 2.230808 3.904936 6.030343 8.983605 2.167363 2.892887 2.836605 3.321652 3.289929 3.321652l0.273223-0.042979 0.273223-0.027629 0.708128 0.236384c1.587148 0.949628 1.058099 1.27197 3.282766 4.759397 2.213411 3.481288 1.476631 2.117221 3.162016 6.335289 1.707898 4.236488 3.39226 7.407714 3.711532 8.459672 0.311085 1.062192 2.219551 3.074012 3.897773 4.865821 1.700735 1.788739 1.601474 2.432399 2.114151 5.28947 0.535189 2.859118 0 2.114151 3.067872 4.441149 1.826602 1.390673 2.413979 1.708921 2.818185 1.708921 0.279363 0 0.453325-0.150426 0.88823-0.232291 1.051959-0.204661-0.314155-1.593288-0.959861-2.966565-0.630357-1.36509-2.425236-3.375887-2.425236-4.324492 0-0.959861-0.63445-2.538823-1.902326-3.701299-1.267876-1.168616-1.373277-2.007727-1.486864-3.492544-0.099261-1.486864-2.844791-4.542456-3.700275-5.499248-0.836041-0.940418-2.734274-4.012384-3.162016-5.597485-0.303922-1.133823 0.686638-1.293459 1.394766-1.293459l0.60989 0.025583c0.321318 0 3.180436 3.806699 3.180436 4.329609 0 0.535189 2.429329 2.963495 3.90903 5.28333 1.462305 2.334161 0.308015 2.440585 3.374864 5.182023 1.650593 1.483794 1.741667 1.639337 1.681292 1.639337l-0.020466-0.00921-0.029676 0c0 0 0.057305 0.058328 0.481977 0.38067 1.366114 1.059122 1.27504 2.114151 2.007727 3.487428 0.73678 1.37123 0.77055 3.350304 4.022617 5.741771 3.239787 2.4017 3.803629 8.881274 3.65832 11.137665-0.12996 2.254344 2.117221 2.964518 2.822278 4.230348 0.705058 1.2689 2.958378 2.964518 5.078669 3.672646 2.114151 0.694825 4.65195 2.53166 9.16166 5.91778 1.13587 0.842181 2.231831 1.181919 3.25923 1.181919 3.044336 0 5.516644-2.839675 6.890944-3.165086l0.240477-0.020466c1.728364 0 3.236718 4.148483 8.074909 7.782244 2.945075 2.217505 3.838422 2.708692 4.614088 2.708692 0.549515 0 1.030469-0.26913 2.13564-0.325411l0.083911 0c2.620687 0 3.062755 6.678096 7.253194 10.997472 4.235464 4.374634 7.907087 5.779633 8.03807 6.481621 0.035816 0.184195 0.379647 0.265036 0.907673 0.265036 1.479701 0 4.447289-0.626263 6.424316-1.242294 0.565888-0.187265 1.000793-0.26299 1.337461-0.26299 1.282203 0 1.267876 1.187035 2.050706 3.074012 0.980327 2.39863 1.548262 6.208399 1.671059 10.429537 0.151449 4.225231-2.663666 6.204305-3.941775 7.195889-1.25662 0.98749-3.231601 5.641487-3.944845 8.306176-0.686638 2.688225-1.260713 6.072299 0.138146 7.480368 1.420349 1.402953-0.824785 2.811022-1.819438 5.779633-0.988514 2.960425 0.994654 3.940752 2.241041 6.333242 1.279133 2.39863 5.084808 11.697413 7.352455 17.477047 2.236947 5.783727 4.922103 11.002588 7.748475 13.806447 2.812045 2.833535 6.898107 6.640234 8.583492 7.196912 1.698688 0.562818 0.14224 26.494421-1.12973 32.007995-1.25969 5.493108-2.245134 12.821003-0.98749 16.620539 1.27504 3.811816-0.410346 6.763031-0.410346 10.162454 0 3.360538-4.508687 10.837836-5.212722 13.805424-0.715291 2.946099-0.286526 8.040117 0.983397 10.985192 1.26583 2.961448-0.856507 8.456602-1.698688 10.567683-0.828878 2.111081-1.980097 2.960425-1.821485 4.242627 0.130983 1.260713 0 4.928243 0 6.471388 0 1.558495 1.410116 12.417821 3.240811 14.379499 1.816369 1.962701 4.647857 3.668553 8.453533 5.779633 1.526773 0.842181 2.835581 1.098008 3.950985 1.098008 1.675152 0 2.904143-0.595564 3.65832-0.666172 1.267876-0.162706-1.266853-3.815909-1.963725-4.093225-0.716314-0.277316-2.975774-4.943592-3.676739-7.486508-0.699941-2.514263-0.411369-3.227508 0.701988-5.474688 0.454348-0.8913 0.763386-1.140986 1.037632-1.140986l0.413416 0.164752 0.432859 0.141216 0.37453-0.170892c0.850367-0.685615 2.681062-3.51301 3.947915-5.062296 1.267876-1.559519-1.836835-4.229325-2.971681-5.220908-1.11745-0.984421 0.998747-4.511757 3.677762-6.054903 2.680039-1.545192 1.267876-1.984191 2.116197-4.237511 0.849344-2.252297 1.552356-3.943822 0.706081-3.943822-0.839111 0-1.26583-2.826372-1.136893-4.361331 0.081864-0.801249 0.459464-1.048889 1.044796-1.048889 0.537236 0 1.25662 0.211824 2.059915 0.354064 0.407276 0.056282 0.846274 0.083911 1.27504 0.083911 1.382487 0 2.695389-0.331551 2.822278-1.088798 0.130983-0.984421 0.130983-3.101641-0.430812-5.071506-0.558725-1.969864 6.04774-1.706875 7.751544-1.826602 1.689479-0.143263 3.095501-1.544169 4.653997-3.095501 1.546216-1.553379 1.972934-2.838651 1.260713-4.666276-0.703011-1.826602-0.831948-2.106987-1.968841-4.077875-0.800225-1.381463-0.464581-1.579985-0.198521-1.579985l0.198521 0.031722c0 0 3.104711 0.99056 4.372587 0.99056 1.27197 0 4.370541-2.12336 7.033184-4.795213 2.687202-2.680039 4.107551-4.092201 6.502088-7.046486 2.390443-2.964518 3.240811-4.514827 4.220115-6.766101 0.992607-2.254344 2.112104-3.679809 1.842974-6.209422-0.287549-2.527566 2.38635-11.274788 5.070482-12.822027 2.677992-1.558495 8.885368-1.404999 10.432607-4.225231 1.551332-2.832512 1.976004-5.217838 2.945075-8.317433 0.99977-3.095501 4.236488-11.979846 3.818979-16.913205-0.417509-4.936429 2.534729-8.187473 4.510734-10.847046 1.961678-2.691295 1.831718-2.558265 4.087085-5.935176 2.25639-3.38612 2.111081-4.370541 2.25639-6.476505 0.137123-2.118244-0.556679-6.909363-0.556679-7.748475C398.803403 580.526723 398.080949 580.446905 397.116995 580.446905z" p-id="2374" fill="#dbdbdb"></path><path d="M421.063383 327.59613c0 0-0.849344-3.024893 2.508123-3.024893l0.877997 0.060375c2.481518 0.319272 4.591575 0.967024 5.630231 0.967024 0.785899 0 0.927115-0.36839 0.130983-1.526773-1.819438-2.684132-3.085268-3.947915-3.233648-4.78805-0.134053-0.846274 5.071506-3.799536 6.490831-5.644557 1.399883-1.827625 2.673899-7.042393 2.391467-9.579169-0.279363-2.535753-2.117221-4.935406 2.248204-5.916756 4.373611-0.995677 9.311063-0.995677 12.409634-2.117221 3.112897-1.12666 4.090155-1.413186 3.802606-2.258437-0.280386-0.847298-6.767124-1.267876-11.000542-1.267876-2.498914 0-4.312212 0.39295-6.244214 0.39295-1.337461 0-2.740414-0.181125-4.456498-0.810459-4.227278-1.548262-10.012028-3.091408-14.519692-3.382027-3.101641-0.198521-5.659907-0.587378-9.646708-0.587378-1.827625 0-3.964288 0.080841-6.562463 0.308015-8.31027 0.705058-19.99438 1.824555-24.24417 2.114151-4.228301 0.277316-3.529383 0.134053-15.361873 0.981351-3.084245 0.226151-6.161327 0.300852-9.04398 0.300852-3.243881 0-6.225795-0.092098-8.725732-0.194428-2.492774-0.095167-4.493338-0.194428-5.736655-0.194428-0.650823 0-1.089821 0.031722-1.296529 0.088004-1.416256 0.421602-4.086062 1.976004-3.108804 3.51608l-0.411369 0.712221c0 0-10.579963 1.12359-11.990079 1.276063-1.409093 0.12996-2.400676 0.697895-1.27197 1.125637 1.134847 0.409322 4.237511 1.267876 4.237511 2.390443 0 1.1328-0.280386 2.537799-1.973958 3.243881-0.777713 0.317225-3.072989 0.409322-5.378497 0.409322-2.755764 0-5.470595-0.127913-5.470595-0.127913l-1.697665 1.686409c0 0 5.158487 1.419326 7.460925 1.419326l0.298805-0.011256 0.530073-0.013303c1.444908 0 0.850367 0.592494 0.729617 1.990331-0.091074 1.112334 3.882424 1.348718 6.431479 1.348718 1.023306 0 1.820462-0.033769 2.023076-0.080841l0.112564-0.011256c1.153266 0 7.575536 1.575892 9.197476 1.852184l0.538259 0.031722 0.654916-0.031722 0.697895-0.024559c1.089821 0 2.288113 0.361227 3.88447 2.839675 2.541893 3.945869 3.231601 7.883551 6.207375 8.874111 2.954285 0.98749 2.960425 0.708128 4.364401 0.98749 1.422396 0.284479-6.212492-0.417509-3.371794 1.976004 1.281179 1.098008 2.393513 1.307785 3.434216 1.307785l0.935302-0.050142 0.903579-0.027629c0.538259 0 1.079588 0.059352 1.62194 0.322341 2.12029 0.980327 3.105734 3.239787 2.688225 5.353938-0.432859 2.106987-4.232394 4.79112-5.652743 6.484691-1.401929 1.688455-3.51608 2.677992-3.240811 4.078899 0.279363 1.413186 4.66116 4.235464 6.77531 6.349615 2.118244 2.117221 4.64581 5.361101 5.910617 6.627954 1.27197 1.261737 1.413186 0.282433 6.207375 2.532683 4.050246 1.915629 5.988388 2.609431 7.503904 2.609431l0.813528-0.073678c1.689479-0.276293 5.641487-4.235464 6.060019-5.924943 0.417509-1.696642 1.263783-5.77247 2.964518-7.037277 1.691525-1.266853 1.104147-4.369517 7.748475-4.797259 6.610558-0.421602 12.405541-2.955308 14.373359-4.226255 1.976004-1.27504 0.566912-2.114151 8.169053-3.39533 7.607258-1.264806 11.698436-1.537006 10.720156-3.65525C427.125449 331.267752 421.063383 327.59613 421.063383 327.59613z" p-id="2375" fill="#dbdbdb"></path><path d="M950.321442 342.962096c-1.553379-0.287549-7.043417-2.390443-14.236236-5.497201-6.317892-2.727111-13.07376-4.475941-17.015535-4.475941-0.538259 0-1.020236 0.036839-1.464351 0.099261-0.842181 0.14224-1.527796 0.172939-2.110057 0.172939l-0.907673-0.021489-0.782829-0.024559c-0.782829 0-1.480724 0.138146-2.524496 0.860601-1.521656 1.047866 0.662079 2.475378-0.36839 2.475378-0.503467 0-1.763157-0.332575-4.577249-1.192152-6.907317-2.168386-6.907317-3.488451-9.347902-3.488451-0.593518 0-1.331321 0.073678-2.344395 0.240477-2.885723 0.460488-6.221702 1.364067-9.121751 1.364067-2.355651 0-4.426823-0.602727-5.680373-2.494821-1.739621-2.598174-2.780323-3.231601-4.266164-3.231601-0.938372 0-2.036379 0.25071-3.634784 0.403183-1.795902 0.194428-4.092201 0.357134-6.423293 0.357134-2.977821 0-5.966898-0.260943-7.9296-1.054005-3.540639-1.413186-3.258207-2.815115-8.328689-3.240811-0.573051-0.038886-1.095961-0.073678-1.561565-0.073678-3.664459 0-4.628414 1.370207-11.119245 2.609431-5.031597 0.975211-4.958942 2.068102-6.883781 2.068102-0.857531 0-2.156106-0.223081-4.529153-0.796132-5.29254-1.27197-3.719718-2.541893-4.851495-2.541893-0.50449 0-1.518586 0.243547-3.89675 0.856507-5.559623 1.413186-6.848988 4.572132-8.212032 4.572132-0.535189 0-1.096984-0.485047-1.937119-1.763157-2.960425-4.504594 4.935406-3.240811-3.535523-5.493108-6.348592-1.695618-5.04183-2.514263-6.178723-2.514263-0.397043 0-1.01512 0.089028-2.272763 0.252757-3.921309 0.552585-3.368724 0.76441-5.680373 0.76441-0.673335 0-1.587148-0.021489-2.911306-0.061398-3.495614-0.073678-4.692882-0.306992-6.900154-0.306992-1.549286 0-3.568269 0.102331-7.184633 0.457418-8.890484 0.849344-16.650215 1.557472-17.633612 1.557472-0.610914 0-3.935636 0.332575-5.836939 0.332575-1.096984 0-1.749854-0.112564-1.066285-0.481977 1.846044-0.985444 3.665483-3.098571 7.475252-3.526313 3.806699-0.418532 6.056949-0.984421 9.154497-3.659343 3.105734-2.684132 18.751063-3.672646 5.501294-5.073552-8.258081-0.886183-11.917424-1.042749-13.640672-1.042749-1.041726 0-1.376347 0.051165-1.587148 0.051165-0.38988 0-3.03001 0.361227-4.803399 0.361227-0.711198 0-1.287319-0.060375-1.515516-0.218988-0.659009-0.428765 0.209778-1.806135-1.27504-1.806135-0.494257 0-1.25355 0.152473-2.40477 0.535189-4.65195 1.550309-7.904017 2.822278-9.599635 3.105734-1.675152 0.286526-12.81384 0.286526-14.359033 0.417509l-0.776689 0.025583-0.941442-0.010233c-0.345877-0.007163-0.711198-0.007163-1.105171-0.007163-1.861394 0-4.260024 0.12382-6.494924 0.980327-3.66139 1.413186-6.621814 1.830695-8.167007 2.539846-1.542122 0.705058-1.984191 1.270946-7.046486 2.393513-3.370771 0.76134-5.748934 0.88516-6.972808 0.88516-0.593518 0-0.930185-0.035816-0.930185-0.035816s-2.106987 1.125637 1.139963 3.65525c3.236718 2.545986 7.195889 2.12029 6.900154 5.080715-0.275269 2.967588-0.275269 4.653997-0.275269 4.653997s-0.367367 0.166799-0.981351 0.166799c-0.76748 0-1.912559-0.257873-3.258207-1.434675-2.38635-2.113127-0.833995-3.098571-3.526313-4.503571-2.190899-1.165546-2.301416-1.951445-3.289929-1.951445l-0.789992 0.109494c-1.841951 0.424672-0.554632 0.287549-4.637624 0.995677-0.402159 0.053212-0.765433 0.088004-1.11745 0.088004-1.207501 0-2.245134-0.343831-3.162016-0.683569-0.900509-0.338714-1.703805-0.683569-2.415003-0.683569-0.584308 0-1.115404 0.226151-1.629103 0.846274-1.977028 2.397606-0.998747 6.622838-0.423649 7.191796 0.561795 0.563842 2.662643 2.111081 4.500501 2.111081 1.822508 0 7.474228 1.558495 7.043417 2.964518-0.303922 1.033539 0.078795 3.052522-0.87288 3.052522-0.345877 0-0.860601-0.273223-1.65264-0.938372-2.963495-2.532683-3.672646-3.098571-4.792143-3.098571-1.12666 0-1.412163 0.697895-3.366677 2.538823-1.997494 1.830695-5.088902 3.370771-5.514597 3.51301-0.233314 0.082888-1.933025 0.38988-3.02387 0.38988-0.870834 0-1.367137-0.194428-0.49528-0.804319 1.980097-1.413186 6.764054-6.342452 5.91471-8.455579-0.853437-2.118244-1.26583-3.387144-1.127683-6.771217 0.13917-3.382027 5.350868-3.796466 0.423649-4.657067-2.323928-0.397043-4.069689-0.828878-5.459339-0.828878-1.535983 0-2.65548 0.541329-3.694135 2.245134-1.985214 3.239787-6.206352 2.537799-3.953032 6.483668 2.2656 3.940752 3.953032 4.652973 3.370771 5.353938-0.240477 0.315178-1.394766 0.51984-2.7486 0.51984-1.681292 0-3.632737-0.303922-4.567016-1.083681-1.430582-1.194198-4.090155-3.006474-6.594185-3.006474-0.440022 0-0.871857 0.063445-1.302669 0.187265-0.312108 0.095167-0.705058 0.14224-1.136893 0.14224-3.27151 0-9.002025-2.532683-9.002025-2.532683s5.491061 2.532683 2.807952 4.783956c-1.977028 1.675152-4.592598 3.350304-8.576329 3.350304-1.3743 0-2.927679-0.197498-4.663206-0.672312-1.606591-0.428765-3.00238-0.60989-4.250814-0.60989-3.947915 0-6.207375 1.802042-8.15882 2.450818-2.542916 0.846274-10.847046 1.830695-11.137665 2.390443l-0.152473 0.088004c-0.542352 0-1.968841-1.866511 0.152473-3.613294 1.527796-1.25355 1.101077-2.616594 0.134053-2.616594-0.540306 0-1.296529 0.446162-1.961678 1.636267-1.827625 3.239787-0.709151 4.926196-0.835018 6.058996-0.146333 1.125637-7.061836 0.981351-7.893784 2.815115-0.804319 1.732457-0.229221 6.100952-2.165316 6.100952l-0.38067-0.038886c-2.400676-0.566912-10.4367-3.099594-10.851139-3.099594-0.240477 0-0.537236 1.069355-1.348718 1.069355-0.617054 0-1.514493-0.592494-2.87856-2.62478-3.251044-4.798283-5.638417-4.371564-2.811022-5.357008 0.480954-0.170892 0.822738-0.234337 1.089821-0.234337 0.630357 0 0.836041 0.37146 1.353834 0.74906 0.531096 0.379647 1.388627 0.754177 3.327792 0.754177l0.424672-0.00307c5.213745-0.134053 13.662161-0.980327 14.101159-1.402953 0.411369-0.427742 2.523473-0.427742 1.254573-2.255367-1.254573-1.834788-8.316409-5.223978-16.630772-7.057743-2.044566-0.446162-3.408633-0.599657-4.417613-0.599657-1.055029 0-1.744737 0.156566-2.479471 0.322341-0.703011 0.159636-1.470491 0.325411-2.64627 0.325411-1.13587 0-2.671852-0.151449-4.977361-0.611937-5.931083-1.169639-9.18315-2.393513-12.025894-2.393513-1.612731 0-3.098571 0.396019-4.892427 1.416256-4.925173 2.819209-3.081175 2.385327-7.605212 3.657296-1.048889 0.291642-2.103918 0.37146-3.14462 0.37146-0.650823 0-1.325182-0.023536-1.947352-0.063445-0.645706-0.035816-1.255597-0.060375-1.849114-0.060375-1.946328 0-3.619434 0.339738-4.755304 2.156106 0 0-0.988514 6.058996-1.972934 7.325849-0.982374 1.264806-2.943029 3.520173-6.484691 5.347798-3.51301 1.837858-8.03193 3.530406-9.999748 4.79419-1.967818 1.267876-6.767124 0.282433-5.092995 3.802606 1.703805 3.527336 2.688225 2.267647 2.835581 4.657067 0.150426 2.394537 1.134847 6.342452 1.976004 6.906294 0.348947 0.233314 0.717338 0.318248 1.264806 0.318248 0.769526 0 1.909489-0.156566 3.946892-0.318248 2.785439-0.220011 3.635807-3.63376 4.284583-3.63376 0.181125 0 0.321318 0.234337 0.505513 0.814552 0.856507 2.819209 2.536776 5.213745 3.387144 6.488785 0.841158 1.257643 0 3.373841-0.98749 3.799536l-0.291642 0.060375c-0.923022 0-2.00875-1.731434-2.53166-2.87549-0.275269-0.651846-1.165546-0.970094-2.201132-0.970094-0.960885 0-2.038426 0.273223-2.873444 0.827855-1.684362 1.12666-1.930979 6.304589-1.718131 7.890714 0.204661 1.600451-0.322341 4.437056-2.339278 5.28333-2.006703 0.856507-3.273557 3.176342-5.381567 3.314489-2.116197 0.141216-4.220115 1.267876-5.779633 3.38612-1.553379 2.113127 0.283456 3.664459-5.637394 5.358031-5.912663 1.688455-4.366448 2.807952-8.458649 3.097548-4.084015 0.277316-3.659343 3.095501-2.114151 3.799536 1.561565 0.708128 6.619768 2.125407 7.330966 4.798283 0.706081 2.676969 2.400676 4.79419-0.972141 6.483668-2.549056 1.264806-2.789533 2.376117-4.411473 2.376117-0.537236 0-1.231037-0.12075-2.223644-0.403183-3.943822-1.1328-9.026584-1.972934-9.026584-1.972934s-1.902326 4.012384-0.840134 6.548136c1.055029 2.541893 1.540076 6.703679 0.411369 8.115841-1.125637 1.39886-2.820232 1.548262-1.540076 4.360308 1.27197 2.829442 3.51608 5.216815 4.511757 5.357008 0.984421 0.141216 4.087085 1.689479 3.38919 3.240811-0.709151 1.555425-1.146103 2.538823-3.964288 6.073322-2.807952 3.510964-5.633301 5.209652-6.475482 7.040347-0.847298 1.833765 0.700965 7.607258 0.282433 8.456602-0.424672 0.843204-3.370771 1.12359-5.492084 2.815115-2.128477 1.692548-6.352685 7.826246-6.767124 9.515724-0.420579 1.692548-2.535753 6.133697-2.960425 7.826246-0.424672 1.695618-2.968611 9.92914-2.118244 11.20111 0.850367 1.277086 0.63445 2.325975 0.424672 5.502317-0.215918 3.158946 0 13.174044 0.425695 14.319124 0.424672 1.113357 0.566912 4.771677 0.970094 6.754844 0.432859 1.968841 2.408863 5.771447 3.549849 6.614651 1.107217 0.857531 6.189979 7.052626 8.732895 10.717086 2.541893 3.668553 1.830695 6.204305 6.475482 6.204305 0.719384 0 1.36509 0.005117 1.923816 0.005117 3.098571 0 4.213975-0.110517 6.962575-1.406023 1.976004-0.963954 2.436492-1.434675 3.058662-1.434675 0.410346 0 0.893346 0.200568 1.871627 0.583285 1.64957 0.63752 2.400676 1.706875 3.628644 1.706875 0.651846 0 1.441838-0.303922 2.574638-1.144056 3.232624-2.410909 2.534729-2.254344 5.070482-3.805676 1.706875-1.048889 2.261507-2.850931 3.222391-2.850931 0.470721 0 1.026376 0.426719 1.850138 1.582031 2.533706 3.51915 3.241834 3.657296 3.950985 4.926196 0.563842 1.037632-0.803295 2.53166 0.530073 2.53166 0.313132 0 0.769526-0.079818 1.438769-0.277316 2.570545-0.711198 3.334955-1.496074 4.043083-1.496074l0.88516 0.361227c1.26583 0.995677 4.797259 5.649674 3.817955 9.17394-0.992607 3.533476-1.842974 3.663436-1.410116 7.188726 0.417509 3.526313-0.432859 4.231371 1.25662 7.750521 1.703805 3.524267 10.577916 21.849634 11.002588 23.954575 0 0 0.400113 5.366218-1.990331 8.18952-2.38942 2.812045-3.087315 16.065907-2.954285 17.894555 0.158612 1.839905 4.79419 10.282181 5.217838 14.945387 0.428765 4.64888 0.712221 7.465019 0.428765 13.093203-0.301875 5.65172 1.409093 4.100388 3.237741 6.785543 1.836835 2.665713 7.892761 8.030907 6.909363 12.681834-0.989537 4.644787-3.958148 5.072529-1.559519 6.336312 1.564635 0.840134 6.207375 2.124384 10.592242 2.124384 2.351558 0 4.647857-0.3776 6.335289-1.404999 4.78805-2.988054 9.997702-3.679809 11.69025-4.951779 1.691525-1.263783 2.959402-3.933589 3.087315-8.311293 0.155543-4.368494 1.551332-7.04444 2.831488-8.593725 1.2689-1.547239 2.830465-5.65172 3.932566-6.346545 1.147126-0.706081 5.788843-4.79419 5.788843-9.589402 0-4.79419-2.382257-8.588609 1.003863-12.248975 3.378957-3.672646 10.558473-5.357008 10.558473-13.960966s2.12029-9.312086 0.290619-16.914228c-1.837858-7.616468 0.991584-24.24724 2.391467-26.072819 1.404999-1.836835 14.514575-20.298302 16.628726-23.961738 2.12336-3.674693 7.766894-11.004635 7.322779-12.966313-0.407276-1.976004-1.410116-7.207146-1.410116-7.207146l-0.055259-0.00307c-0.202615 0-1.001817 0.077771-4.310166 0.728594-3.158946 0.601704-4.988618 2.319835-7.153934 2.319835-0.820692 0-1.698688-0.25071-2.704598-0.909719-3.672646-2.40477-5.067412 1.397836-7.330966-6.213515-2.248204-7.615445-1.1328-4.502547-4.935406-11.272741-3.796466-6.767124-8.891508-15.231913-9.009188-18.046005-0.156566-2.822278-5.227048-17.334807-5.505387-18.596544-0.278339-1.277086 0.277316-3.668553 0.971118-3.668553 0.714268 0 4.249791 2.391467 5.792936 4.930289 1.537006 2.537799 1.537006 5.071506 2.953262 8.455579 1.403976 3.390213 3.396353 0.984421 4.103458 6.056949 0.693802 5.080715-0.581238 6.065136 1.248434 8.03807 1.846044 1.983167 3.810792 2.963495 5.088902 6.349615 1.261737 3.384074 2.805906 7.043417 3.091408 9.864672 0.280386 2.813069 0 5.503341 0.280386 6.054903 0.169869 0.336668 1.359974 0.841158 3.328815 0.841158 1.289366 0 2.946099-0.214894 4.851495-0.841158 4.783956-1.553379 10.29753-5.353938 11.982916-6.907317 1.684362-1.548262 0.697895-3.526313 6.052856-4.64581 5.364171-1.122567 7.475252-4.079922 7.90811-5.924943 0.410346-1.827625 0.143263-3.51608 3.377934-5.77247 3.239787-2.260483 2.246157-4.660136 1.691525-6.204305-0.573051-1.551332-1.837858-4.367471-4.79419-5.925966-2.955308-1.539053-5.64558-4.090155-6.067182-5.064342l-0.13917-0.158612c-0.384763 0-0.819668 3.292999-1.832741 3.683902-0.829901 0.292666-0.432859 4.448312-2.429329 4.448312-0.727571 0-1.727341-0.51063-3.209088-1.919722-5.637394-5.357008-7.190773-11.271718-7.758708-13.096273-0.559748-1.839905-3.238764-6.355755-2.387373-8.045233 0.548492-1.105171 1.823532-2.025123 2.914376-2.025123 0.581238 0 1.099031 0.255827 1.434675 0.899486 0.998747 1.834788-0.967024 1.27197 3.551896 5.071506 4.511757 3.799536 5.624091 5.77861 8.589632 6.207375 0.597611 0.077771 1.237177 0.11768 1.907443 0.11768 2.701528 0 5.679349-0.546446 6.133697-0.546446l0.26913-0.007163c0.587378 0 1.763157 0.209778 7.337105 2.685155 6.621814 2.960425 5.361101 3.527336 10.857279 3.950985 5.478781 0.419556 4.652973 0 6.339382 3.38305 1.466398 2.924609 3.454682 4.480035 4.52506 4.480035l0.397043-0.121773 0.804319-0.240477c0.662079 0 1.193175 0.503467 0.473791 1.512447-0.981351 1.413186-0.981351 4.517897 0.272199 4.940522 0.376577 0.12075 0.743944 0.187265 1.127683 0.187265 0.920976 0 1.912559-0.378623 3.109828-1.174756l0.700965-0.230244c1.442862 0 2.717901 2.666736 2.953262 3.753487 0.284479 1.267876 1.284249 13.815657 2.842745 18.190291 1.531889 4.363378 3.640923 9.15859 4.486174 10.562567 0.850367 1.411139 0.850367 5.640464 0.850367 7.606235 0 1.983167 1.410116 3.962242 1.410116 3.962242s3.52222-2.405793 4.093225-3.675716c0.559748-1.272993 0.559748-1.972934 2.251274-7.05058 1.697665-5.071506 1.839905-9.010211 1.839905-10.840906 0-1.845021-3.53143-1.698688 0-3.668553 3.520173-1.980097 2.53166-1.558495 4.65502-3.947915 2.111081-2.39863 1.963725-1.409093 4.78498-4.079922 2.804882-2.687202 0.994654-3.112897 4.222161-5.075599 3.232624-1.983167 3.093455-1.274016 6.207375-4.802376 3.104711-3.526313 1.816369-3.798513 3.803629-4.797259 1.211595-0.602727 0.994654-1.464351 1.316995-1.464351 0.221034 0 0.633427 0.348947 1.785669 1.329275 2.959402 2.532683 3.526313 1.973958 3.805676 4.508687 0.287549 2.535753-1.26276 1.557472 0.847298 3.953032 2.109034 2.396583 3.526313 4.361331 3.942799 6.475482 0.415462 2.124384 0.415462 5.92085 0.415462 6.494924 0 0.173962 0.435928 0.257873 1.023306 0.257873 1.313925 0 3.535523-0.460488 3.925403-1.528819l0.391926-0.320295c1.047866 0 3.467985 3.467985 3.820002 5.39487 0.440022 2.252297 0.857531 1.826602 0.708128 5.77247-0.135076 3.960195-0.434905 10.849092-0.26913 11.417027 0.134053 0.562818 0.134053 5.64865 0.971118 6.91141 0.848321 1.264806 1.839905 0.985444 2.110057 4.219091 0.297782 3.241834 1.695618 5.360078 2.407839 6.91141 0.693802 1.543146 3.521197 5.632277 5.638417 6.480598 2.118244 0.849344 5.081739 2.124384 5.081739 2.124384s-4.659113-6.486738-5.357008-10.014074c-0.714268-3.51915-0.283456-4.225231-1.986237-6.476505-1.689479-2.25946-2.682086-1.128707-4.923126-3.950985-2.25946-2.811022-4.221138-4.797259-2.40477-7.181563 1.841951-2.394537 3.950985-3.113921 3.112897-7.196912-0.778736-3.739161-0.849344-4.532223 0.12689-4.532223l0.287549 0.034792c1.252527 0.138146 3.530406 2.248204 6.062066 4.075829 2.539846 1.829671 3.672646 6.057973 3.946892 7.888667 0.258896 1.6158-0.267083 4.857635 1.515516 4.857635l0.881067-0.206708c2.821255-1.122567 5.919826-4.224208 6.193049-7.042393 0.297782-2.821255 1.984191-0.837064 1.1328-6.622838-0.835018-5.779633-1.1328-7.758708-2.819209-10.158361-1.685385-2.38328-5.7694-7.735172-5.495154-10.848069 0.282433-3.098571 1.833765-6.058996 5.071506-7.188726 2.746554-0.952698 1.270946-2.096754 4.196579-2.096754 0.543376 0 1.236154 0.036839 2.142803 0.12075l0.530073 0.027629c6.048763 0 18.817578-8.782014 19.903306-9.468652 1.136893-0.704035 0.99977-0.704035 3.385097-4.79112 2.418073-4.086062 4.52506-3.237741 4.653997-8.318456 0.151449-5.072529 0.151449-5.212722 0-6.906294-0.128937-1.685385 1.147126-0.846274-1.25355-6.203282-2.405793-5.350868-4.241604-8.725732-2.407839-10.55745 1.840928-1.845021 6.918573-4.938476 4.656043-5.519714-1.497097-0.361227-2.418073-0.493234-3.131317-0.493234l-0.952698 0.088004-0.423649 0.035816c-1.14508 0-3.450589-0.488117-3.807722-2.580778-0.421602-2.387373-1.124614-2.25332 0.980327-3.659343 2.127454-1.416256 1.274016-0.842181 4.373611-3.104711 2.736321-1.972934 2.38942-2.87242 3.048429-2.87242l0.331551 0.046049c1.131777 0.290619 1.687432 3.816932 0.427742 5.505387-1.137916 1.509377-0.809435 3.027963 0.091074 3.027963l0.329505-0.052189c1.122567-0.432859 4.798283-2.695389 4.798283-2.695389s1.837858 0.992607 2.393513 2.536776c0.564865 1.553379 2.387373 3.382027 3.243881 6.766101 0.828878 3.38612 1.692548 2.111081 0.828878 5.500271-0.243547 0.99056-0.134053 1.358951 0.135076 1.358951 0.650823 0 2.343371-2.049682 2.835581-2.347464l0.535189-0.077771 0.414439 0.007163 0.472767 0.00614c1.697665 0 4.013407-0.384763 2.376117-5.149277-2.251274-6.624884-3.097548-5.070482-3.097548-7.896854 0-2.815115-3.091408-2.672876 0.430812-4.922103 3.521197-2.266623 10.989285-7.909134 12.114922-8.040117 1.12052-0.148379 6.206352-0.148379 8.876158-5.643534 2.692319-5.490038 3.239787-7.604188 4.375657-9.721409 1.1328-2.12029 1.969864-1.976004 2.676969-6.345522 0.709151-4.366448-0.14224-3.374864 1.27504-5.921873 1.409093-2.538823 2.246157-3.810792 0.283456-6.342452-1.727341-2.220574-1.077541-3.15076-2.242064-3.15076l-0.595564 0.052189c-1.312902 0.188288-3.457752 2.029216-5.084808 2.029216-0.774643 0-1.433652-0.449231-1.801019-1.755993-1.136893-3.948939 0.268106-0.559748 2.803859-4.78191 2.535753-4.230348 6.070252-6.479575 10.307763-8.884344 4.212952-2.390443 4.931313-2.26253 8.014534-2.535753 3.115967-0.286526 12.550851-0.145309 14.802124-0.846274 1.196245-0.378623 3.26844-0.701988 4.526083-0.701988 1.111311 0 1.599428 0.255827 0.26913 0.984421-2.001587 1.105171 0.291642 2.433422 1.911536 2.433422 0.657986 0 1.212618-0.215918 1.332345-0.74292 0.418532-1.831718-2.822278-5.351891 0.706081-5.779633 3.515057-0.424672 3.25002-1.688455 6.755868-2.527566 2.934842-0.708128 6.540973-2.185782 8.485255-2.185782 0.404206 0 0.733711 0.064468 0.963954 0.205685 1.311879 0.775666 0.331551 3.583618 1.2689 3.583618l0.285502-0.060375c1.400906-0.558725 4.236488-4.362354 5.218862-4.517897l0.459464-0.024559c0.914836 0 1.87879 0.400113 0.801249 1.724271-1.260713 1.555425-1.838881 1.407046-4.217045 4.511757-2.411933 3.098571-3.116991 4.090155-5.786797 4.932336-2.673899 0.839111-2.543939 0.277316-4.783956 2.106987-2.267647 1.845021-6.628978 0.146333-5.372358 6.349615 1.269923 6.198166 0.710175 7.752568 0.710175 10.992355 0 3.247974-0.282433 6.201236 0.280386 7.334036 0.223081 0.414439 0.980327 0.6191 1.947352 0.6191 1.582031 0 3.668553-0.562818 4.542456-1.603521 1.404999-1.699712 1.139963-4.66423 2.673899-8.05035 1.543146-3.373841 0.849344-3.654226 1.837858-4.507664 0.984421-0.835018 1.400906-1.118474 2.955308-2.38942 1.554402-1.267876 2.674922-3.095501 2.393513-5.354961-0.287549-2.266623-2.260483-2.957355-0.839111-4.369517 1.414209-1.409093-1.554402-2.114151 2.53166-2.819209 4.101411-0.707105 6.349615-1.125637 6.755868-1.263783 0.432859-0.148379-1.824555-3.245927 6.487761-3.245927 8.321526 0 9.740852-1.964748 11.990079-3.804652 2.25639-1.829671 1.969864-2.534729 6.467295-2.534729 2.619664 0 4.426823 0.61296 5.372358 0.61296 0.689708 0 0.948605-0.329505 0.689708-1.463328-0.552585-2.677992-2.379187-4.79112-3.368724-5.77554-0.979304-0.98749 3.096525-1.406023 4.646833-1.834788 1.548262-0.421602 1.548262-1.409093 3.240811-1.979074 0.808412-0.26606 1.994424-0.700965 3.548826-0.700965 1.680269 0 3.771907 0.505513 6.325056 2.258437 2.610454 1.785669 4.688789 2.472308 6.254447 2.472308 1.400906 0 2.363837-0.538259 2.90312-1.348718 1.12973-1.689479 2.124384-3.099594 2.124384-3.806699C956.389648 344.512405 951.874821 343.237365 950.321442 342.962096z" p-id="2376" fill="#dbdbdb"></path><path d="M857.588411 638.395712c-1.577938-1.280156-4.949732-5.925966-5.215792-6.342452-0.297782-0.428765-3.540639-6.070252-5.638417-9.451256-2.128477-3.378957-1.426489-4.090155-1.699712-6.615675-0.272199-2.545986-0.272199-3.806699-1.279133-7.328919-0.967024-3.535523-0.967024-2.972705-1.678222-5.361101-0.700965-2.4017-2.393513-4.240581-2.393513-4.240581s-0.14224 1.414209-1.00284 6.491855c-0.842181 5.078669-0.271176 5.078669-0.842181 6.633071-0.563842 1.543146-0.563842 7.897877-0.563842 7.897877s-0.479931 0.697895-1.918699 0.697895c-0.782829 0-1.851161-0.199545-3.278673-0.847298-4.107551-1.833765-7.195889-3.941775-7.351432-7.885598-0.11461-3.952009 0.440022-5.078669-0.11461-5.924943-0.582261-0.852414-2.832512-1.413186-5.934153-1.547239l-0.212848-0.021489c-3.003404 0-5.496178 2.870374-8.538467 4.529153-1.721201 0.938372-3.070942 1.313925-4.38282 1.313925-1.055029 0-2.115174-0.232291-3.360538-0.605797-0.396019-0.127913-0.73678-0.190335-1.02126-0.190335-1.671059 0-1.50426 2.047636-3.903913 4.687766-2.823302 3.113921-5.91164 5.088902-8.606005 6.211469-2.688225 1.133823 0.847298 5.7694-1.691525 8.035-2.529613 2.25332-3.956102 1.695618-9.44614 3.238764-5.484921 1.537006-2.390443 3.100618-4.510734 6.340405-2.108011 3.244904-3.38305 5.503341-4.51892 9.582239-1.107217 4.087085 1.13587 5.65172 1.13587 9.457396 0 3.798513 1.986237 6.183839 1.414209 11.121292-0.577145 4.936429 0 1.827625 3.803629 11.140735 1.122567 2.741437 1.586125 3.735068 1.908466 3.735068 0.754177 0 0.559748-5.764284 6.129604-7.265474 2.544963-0.685615 3.703345-0.916882 4.362354-0.916882 1.364067 0 0.449231 1.058099 5.226025 1.344624 1.032516 0.060375 1.802042 0.099261 2.362814 0.099261 3.321652 0-0.205685-0.951675 0.867764-1.790786 1.285273-0.988514 4.370541-2.816139 6.488785-3.518127 2.110057-0.710175 5.641487-1.127683 11.423167-1.412163 0.511653-0.030699 0.966001-0.044002 1.338485-0.044002 3.90903 0 1.480724 1.269923 4.433986 3.705392 2.020006 1.667989 2.950192 2.361791 3.432169 2.361791 0.300852 0 0.413416-0.25378 0.5137-0.686638 0.197498-0.774643 2.478448-1.217734 3.923356-1.217734 0.615007 0 1.068332 0.074701 1.162476 0.234337 0.268106 0.576121 2.095731 3.961218 2.953262 5.235235 0.848321 1.27504 3.803629 4.370541 5.637394 8.163937 0.772596 1.63422 1.020236 2.094708 1.037632 2.094708l-0.339738-0.821715c0 0 13.531178 0 16.21531-1.134847 2.685155-1.118474 2.388397-3.101641 4.51278-9.30697 2.110057-6.194072 4.383844-4.069689 7.885598-8.023744 3.527336-3.943822 1.699712-15.642259-0.12996-19.177781C864.345302 647.549186 859.131557 639.656425 857.588411 638.395712z" p-id="2377" fill="#dbdbdb"></path><path d="M744.584708 569.331753c-2.219551-3.923356-1.590218-2.860141-3.397377-6.347568-1.780553-3.491521-0.079818-2.959402-2.958378-5.079692-2.849908-2.115174-4.945639-2.428306-6.114255-4.121877-1.179872-1.687432-3.493567-3.489474-5.406127-5.919826-1.576915-2.028193-3.879354-3.454682-4.630461-3.454682l-0.234337 0.179079c0 0.741897 1.051959 1.591241 2.00875 2.753717 0.953721 1.165546-2.207271 0.521886 2.333138 5.918803 4.553713 5.390777 7.705496 8.035 7.826246 10.04989 0.112564 2.000564-3.078105 6.551206 1.479701 9.607822 4.538363 3.062755 8.151657 3.800559 9.3039 5.712095 1.158383 1.904373 2.645247 2.428306 2.645247 2.428306s-0.428765-5.912663-1.069355-7.083326C745.74002 572.818157 746.811422 573.246923 744.584708 569.331753z" p-id="2378" fill="#dbdbdb"></path><path d="M608.695784 610.231255c0.086981-1.046842 1.168616-3.387144 0.950651-4.335748-0.095167-0.442068-0.562818-0.636496-1.048889-0.636496-0.553609 0-1.113357 0.24764-1.163499 0.636496 0 0-4.236488 9.622148-5.713119 10.04989l-0.339738 0.045025-0.74906-0.26299-0.645706-0.286526c-0.397043 0-0.928139 0.399089-1.846044 1.865487-2.24411 3.499707-7.095605 7.085372-6.046716 9.214872 1.054005 2.117221 3.494591 7.187703 3.182482 7.822153-0.315178 0.627287-1.37737 8.979512-0.315178 9.624195 1.054005 0.61603 0.626263 3.89368 2.740414 4.013407l0.137123 0c2.14485 0 5.9055-2.24411 6.095835-2.970658 0.216941-0.737804 3.072989-6.450922 4.130064-8.655124 1.054005-2.238994 1.158383-8.466835 1.99954-11.632945 0.851391-3.171226 2.954285-7.302313 1.916653-8.568143C610.915335 614.884228 608.585267 611.30061 608.695784 610.231255z" p-id="2379" fill="#dbdbdb"></path><path d="M686.695253 533.523199c-0.63752-1.274016-1.626034-1.691525-1.626034-1.691525s0.211824 2.25946-0.217964 4.229325c-0.415462 1.976004-1.047866 0.994654-1.047866 3.388167 0 2.393513 0.072655 3.868097 1.047866 4.210905 0.667196 0.25378 2.778276 1.119497 4.109598 1.119497 0.674359 0 1.168616-0.232291 1.109264-0.893346-0.146333-1.981121-1.349741-3.387144-1.703805-5.351891C688.022481 536.555256 687.323563 534.795169 686.695253 533.523199z" p-id="2380" fill="#dbdbdb"></path><path d="M175.249885 325.959863l0.873903-0.057305c3.244904-0.424672 3.810792-1.263783 5.078669-1.830695 1.267876-0.562818-0.705058-1.544169 3.38612-1.980097 2.822278-0.282433 3.962242-0.777713 4.858658-0.777713 0.408299 0 0.768503 0.091074 1.193175 0.367367 1.424442 0.846274 3.240811 2.118244 0.287549 3.374864-2.957355 1.278109-4.656043 1.692548 0.280386 2.964518 3.360538 0.860601 4.76656 1.139963 5.843078 1.139963 0.502443 0 0.951675-0.060375 1.489934-0.148379l0.408299-0.025583c1.953492 0 6.175653 1.587148 5.65172 1.853208-0.562818 0.286526-0.856507 0.708128-5.361101 0.708128-3.000334 0-4.508687-1.12666-5.213745-1.12666-0.36225 0-0.517793 0.272199-0.562818 1.12666-0.137123 2.52859 6.200212 1.263783 9.734712 2.819209 2.508123 1.096984-0.693802 2.488681 1.651616 2.488681 0.957815 0 2.832512-0.230244 6.376221-0.807389 8.312316-1.334391 11.310603-1.957585 13.227256-1.957585 0.8913 0 1.561565 0.14224 2.410909 0.418532 1.589195 0.49835 5.827729 1.487887 8.124028 1.487887 1.602498 0 2.269693-0.471744 0.473791-1.919722l-8.30413-3.802606c0 0-5.216815-2.819209-6.352685-4.795213-1.133823-1.969864-1.831718-3.941775-2.953262-4.090155l-0.192382-0.004093c-0.962931 0-1.25355 1.062192-1.784646 2.124384-0.36225 0.715291-0.318248 1.364067-1.544169 1.364067-0.733711 0-1.888-0.226151-3.803629-0.800225-5.212722-1.544169-17.486256-4.78805-17.486256-4.78805s-5.202489-2.675946-6.338359-2.819209l-0.319272-0.024559c-1.529843 0-5.76633 0.7552-7.719822 1.151219l-0.509606 0.046049c-0.467651 0-0.772596-0.148379-1.013073-0.300852l-0.64059-0.297782c-0.279363 0-0.605797 0.26299-1.207501 1.112334-1.701758 2.4017-2.270716 3.810792-2.270716 5.068436C173.02317 324.359412 172.919816 325.959863 175.249885 325.959863z" p-id="2381" fill="#dbdbdb"></path><path d="M250.126222 302.364469c4.943592 1.413186 9.026584 3.243881 9.858532 3.243881 0.474814 0 1.437745-0.617054 2.069125-0.617054 0.488117 0 0.789992 0.38681 0.467651 1.749854-0.693802 3.099594-3.088338 6.625908-3.088338 6.625908s7.246031-3.01773 12.005428-3.01773c0.388856 0 0.754177 0.01842 1.098008 0.051165 3.39533 0.409322 3.631714 0.970094 6.695492 0.970094 1.1328 0 2.656503-0.066515 4.855588-0.270153 8.18031-0.700965 13.397125-2.943029 13.397125-5.627161 0-2.681062-4.653997-2.819209 4.376681-5.503341 9.012258-2.672876 9.43693-2.672876 15.208377-4.798283 5.782703-2.099824 5.375427-2.956332 7.627724-3.511987 2.243087-0.559748 3.230578-1.969864 3.230578-1.969864s-10.163477-1.391696-16.254196-1.391696c-0.953721 0-1.792832 0.039909-2.50096 0.12075-3.473101 0.376577-5.754051 0.620124-8.06263 0.620124-1.154289 0-2.316765-0.049119-3.626597-0.201591-3.941775-0.418532-14.377452-1.264806-14.377452-1.264806s-3.947915 0.273223-7.468089 1.685385c-3.51301 1.409093-13.390985 3.102664-15.786545 3.52836-2.39863 0.417509-2.260483 0.842181-0.138146 1.826602 2.114151 0.995677 3.668553 1.703805 5.357008 2.822278 1.689479 1.118474 4.922103 2.106987 1.409093 2.249227l-1.020236 0.024559c-3.003404 0-5.218862-0.611937-6.876618-2.124384-1.837858-1.700735-2.110057-2.125407-3.51301-2.125407-0.73678 0-2.028193-0.299829-3.261277-0.299829-1.161453 0-2.263553 0.265036-2.801812 1.289366C247.867786 298.552653 245.193887 300.954353 250.126222 302.364469z" p-id="2382" fill="#dbdbdb"></path><path d="M250.682901 314.489624c5.082762 1.689479 2.685155 1.413186 7.198959 2.252297 2.970658 0.563842 6.368034 1.363044 9.511631 1.363044 1.626034 0 3.194762-0.218988 4.586458-0.788969 3.123131-1.296529 5.096065-2.270716 6.67605-2.270716 0.481977 0 0.923022 0.084934 1.351787 0.286526 1.293459 0.598634 4.695952 2.456958 6.430456 2.456958 0.723477 0 1.162476-0.314155 1.041726-1.180895-0.270153-1.88493-1.452071-2.228761-2.279926-2.228761-0.471744 0-0.828878 0.109494-0.828878 0.109494s-6.895037-0.896416-10.468422-0.896416c-1.1328 0-1.934049 0.093121-2.075265 0.333598-0.408299 0.732687-5.535063 1.915629-9.420557 1.915629-1.38044 0-2.598174-0.145309-3.3984-0.51063-3.102664-1.406023-5.641487-1.964748-5.497201-3.520173 0.14224-1.550309 2.394537-2.680039 0-3.239787-2.399653-0.571005-6.762007-2.118244-6.762007-2.118244s-3.240811 2.400676-2.118244 2.954285C245.753635 309.98196 245.612419 312.792982 250.682901 314.489624z" p-id="2383" fill="#dbdbdb"></path><path d="M834.24475 572.818157c-2.13257-1.031493-4.270257-2.294252-6.091742-2.294252-0.607844 0-1.190105 0.149403-1.731434 0.49221-2.117221 1.382487-3.805676 3.174296-3.805676 4.546549l-0.38374 0.334621c-0.971118 0-3.511987-1.584078-4.391007-2.14792l-0.294712-0.197498-3.069919-0.213871 0.121773 3.906983c0 0 5.26798 1.595334 8.133238 2.231831 2.843768 0.632403 2.960425 3.601015 3.367701 6.231935 0.410346 2.499937 0.049119 4.904707 2.584871 4.904707l0.484024-0.038886 0.685615-0.034792c2.174526 0 1.101077 1.524726 2.071172 2.783393 1.052982 1.378393 6.118348 2.855024 6.649444 2.855024 0.535189 0 2.862187-3.492544 4.229325-7.611352 0.336668-0.997724 0.712221-1.402953 1.122567-1.402953 1.267876 0 2.833535 3.972475 4.278443 6.051833 1.901303 2.752694 5.290493 3.704368 6.465249 4.869914 0.295735 0.311085 0.762363 0.435928 1.225921 0.435928 1.27504 0 2.719948-0.937348 1.724271-1.706875-1.37123-1.044796 0.053212-13.424754-3.366677-13.424754l-0.122797 0.004093c-0.441045 0.037862-0.806365 0.060375-1.137916 0.060375-2.448772 0-2.52245-0.99977-4.466732-2.493797-2.241041-1.703805-2.866281-2.015913-5.722328-4.241604C839.946612 574.49331 837.106937 574.190411 834.24475 572.818157z" p-id="2384" fill="#dbdbdb"></path></svg>