<?xml version="1.0" standalone="no"?><!DOCTYPE svg PUBLIC "-//W3C//DTD SVG 1.1//EN" "http://www.w3.org/Graphics/SVG/1.1/DTD/svg11.dtd"><svg t="1500909667701" class="icon" style="" viewBox="0 0 1024 1024" version="1.1" xmlns="http://www.w3.org/2000/svg" p-id="4455" xmlns:xlink="http://www.w3.org/1999/xlink" width="200" height="200"><defs><style type="text/css">html, * { user-select: text !important; }
:not([class*="icon"]):not(i):not(pre):not(code):not(kbd):not(samp):not(var) { font-family: "Microsoft Yahei" !important; text-shadow: rgb(153, 153, 153) 0.05em 0.05em 0.2em !important; }
</style></defs><path d="M638.642 467.576s-25.5-36.656-35.062-47.814c-9.561-11.152-12.75-36.654-15.937-43.028-3.189-6.376-15.94-39.844-15.94-39.844l4.783-19.122s-4.782-20.72-11.154-19.125c-6.377 1.59-22.315 1.59-22.315 1.59l-30.28-1.59-36.653-7.972-20.719 14.344-20.719-12.749-27.093-7.967-3.188-22.312s-17.53-6.376-28.687-6.376c-11.156 0-47.812 4.782-47.812 4.782l-25.5 11.156s-17.53-1.594-23.906 4.778c-6.374 6.377-22.31 27.097-22.31 27.097s-7.968 20.714-15.94 23.902c-7.969 3.19-31.872 36.659-31.872 36.659s0 44.623-3.189 54.184c-3.186 9.563 6.377 46.219 6.377 46.219l28.686 35.06s17.532 27.093 23.906 27.093c6.377 0 9.563-3.186 22.313-3.186 12.749 0 27.093-1.594 27.093-1.594s15.937-11.154 22.312-12.75c6.374-1.594 22.312-1.594 22.312 4.782 0 6.377 17.53 12.75 17.53 12.75l19.126 27.092s9.56 19.126 9.56 27.097c0 7.968 11.159 35.06 9.565 41.436-1.595 6.372 14.344 60.561 6.375 65.342-7.97 4.782-3.189 17.53-1.596 28.685 1.596 11.158 12.75 25.501 12.75 35.064s9.564 46.219 9.564 46.219 9.561 9.563 6.373 17.53c-3.186 7.968 19.125 46.217 19.125 46.217l17.532 22.312s-4.781 4.78 9.561-3.187c14.344-7.967 28.689-27.093 28.689-27.093l22.312-19.125s9.563-17.53 11.154-25.501c1.593-7.968 9.565-23.903 9.565-23.903s14.343-6.376 14.343-12.75c0-6.375-3.188-41.439 6.375-46.22 9.562-4.78 12.749-7.967 17.53-22.31 4.782-14.344 9.563-35.06 9.563-44.623 0-9.563-6.375-46.219 0-55.781 6.374-9.563 28.688-41.436 39.842-49.408 11.156-7.967 27.093-25.497 31.875-39.842 4.782-14.344 9.56-47.812 9.56-47.812s-25.497 1.595-31.871 6.376c-6.375 4.781-23.908-4.782-23.908-4.782zM511.944 65.96c-246.893 0-447.04 200.145-447.04 447.038 0 246.89 200.147 447.04 447.04 447.04 246.89 0 447.037-200.15 447.037-447.04 0-246.893-200.146-447.038-447.037-447.038z m0 833.117c-213.226 0-386.08-172.854-386.08-386.08 0-213.223 172.854-386.076 386.08-386.076 213.223 0 386.077 172.853 386.077 386.077 0 213.225-172.854 386.079-386.077 386.079zM646.61 711.414s3.188 17.534 3.188 25.5-11.156 20.715-11.156 20.715 6.377 25.501 12.75 31.875c0 0 22.312-23.904 23.906-30.28 1.596-6.376 0-23.906 6.374-30.277 6.377-6.377 6.377-51 6.377-51l-23.907 15.936-17.532 17.53z" p-id="4456" fill="#515151"></path></svg>