<?xml version="1.0" standalone="no"?><!DOCTYPE svg PUBLIC "-//W3C//DTD SVG 1.1//EN" "http://www.w3.org/Graphics/SVG/1.1/DTD/svg11.dtd"><svg t="1494945386193" class="icon" style="" viewBox="0 0 1024 1024" version="1.1" xmlns="http://www.w3.org/2000/svg" p-id="4172" xmlns:xlink="http://www.w3.org/1999/xlink" width="200" height="200"><defs><style type="text/css">:not([class*="icon"]):not(i):not(pre):not(code):not(kbd):not(samp):not(var) { font-family: "Microsoft Yahei" !important; text-shadow: rgb(153, 153, 153) 0.05em 0.05em 0.2em !important; }
</style></defs><path d="M512.552585 64.648392c-247.229754 0-447.648366 200.418612-447.648366 447.648366s200.418612 447.64632 447.648366 447.64632c247.227708 0 447.64632-200.416566 447.64632-447.64632S759.780293 64.648392 512.552585 64.648392zM761.984495 807.680233c0.161682-0.86674 0.306992-1.740644 0.417509-2.625804 1.393743-11.133571 6.960529-18.093077 9.743922-26.442232s15.306614-4.176113 25.049512-6.960529c1.180895-0.337691 2.212388-0.738827 3.127224-1.193175C788.413424 783.724635 775.6047 796.167015 761.984495 807.680233zM806.315142 763.624854c1.046842-2.916423 1.394766-6.349615 2.01489-10.061147 1.390673-8.353248-2.784416-15.308661-2.784416-15.308661s2.784416-15.308661 12.524245-20.875446c9.743922-5.566786 8.349155-23.659863 9.743922-37.573757 1.390673-13.915941-4.176113-30.615275-6.960529-37.575804-2.78237-6.959505-5.564739-15.308661-5.564739-22.26612 0-6.959505-16.700357-33.401738-22.267143-41.750893-5.566786-8.349155-40.356127-27.832905-48.706305-32.009018-8.351202-4.173043 15.306614-15.304568 15.306614-15.304568s18.093077-2.784416 18.093077-12.526291c0-9.743922-5.566786-25.049512-11.133571-36.186154-5.566786-11.131525-4.176113-33.397644-4.176113-44.531216 0-11.131525-8.349155-12.526291-22.26612-13.913894-13.915941-1.393743-12.524245-1.393743-20.8734-5.566786-8.351202-4.176113-19.482727-8.353248-29.226648-8.353248-9.739828 0-25.049512-1.390673-25.049512-1.390673l-12.524245-22.265096-12.526291-1.391696c0 0-22.265096 2.78237-33.399691-1.390673-11.133571-4.176113-29.224602-9.743922-44.533262-15.310707-15.308661-5.564739-27.832905-6.959505-48.708352-6.959505-20.875446 0-20.875446 2.78237-38.966477 4.176113-18.09103 1.390673-22.267143 2.78237-29.224602 5.566786-6.959505 2.78237-22.26612 27.830859-25.049512 34.791387-2.78237 6.955412-15.308661 20.875446-16.698311 27.830859-1.393743 6.960529 0 23.659863-2.784416 32.009018-2.78237 8.349155 0 19.481703 0 27.833929 0 8.351202 5.566786 11.133571 11.133571 15.306614 5.566786 4.176113 2.78237 15.308661 2.78237 23.659863 0 8.349155-8.349155 26.440186-8.349155 26.440186l-6.959505 22.26612-22.267143 0-12.522198 11.133571-16.700357 6.959505-18.093077 5.566786c0 0-6.957459-9.743922-6.957459-15.310707 0-5.564739 5.566786-15.304568 5.566786-15.304568l16.700357-13.920034-16.700357-15.304568c0 0-18.093077-6.960529-22.267143-13.915941-4.175089-6.960529-23.657816-19.48682-23.657816-19.48682s-15.308661-5.564739-15.308661-11.131525c0-5.566786-13.915941 4.176113-13.915941 4.176113l-9.741875-2.78237L212.698287 503.062444c0 0-9.741875-11.131525-9.741875-19.481703 0-8.349155-8.349155-15.310707-8.349155-15.310707l4.175089-11.131525c0 0-13.915941-6.959505-15.308661-15.310707-1.391696-8.349155-4.175089-22.264073-4.175089-22.264073-4.175089 15.308661-4.175089 33.397644-4.175089 41.750893 0 8.349155-8.349155 9.739828-2.78237 13.915941 5.566786 4.173043 12.524245 16.698311 18.088984 23.657816 5.566786 6.957459 2.784416 19.482727 15.310707 18.088984 12.524245-1.390673 13.915941 6.959505 16.700357 16.702404 2.78237 9.739828 23.655769 19.482727 34.789341 19.482727s8.349155 6.955412-1.390673 15.308661c-9.743922 8.349155-2.784416 13.915941 4.173043 15.306614 6.959505 1.39272-4.173043 19.484773-8.349155 26.442232-4.175089 6.959505 1.39272 33.401738 1.39272 33.401738s-1.39272 13.915941-11.131525 13.915941c-9.743922 0-4.176113 4.173043-2.784416 11.131525 1.390673 6.959505 16.700357 18.093077 23.657816 15.310707 6.959505-2.784416 5.566786-11.137665 18.093077-8.351202 12.522198 2.784416 5.564739 20.8734 5.564739 20.8734l-2.78237 11.131525 9.739828 13.920034c0 0-2.78237 13.915941-2.78237 19.481703 0 5.566786 11.133571 13.915941 11.133571 13.915941s15.308661 11.133571 23.659863 18.093077c8.349155 6.955412 34.789341 22.265096 48.706305 23.659863 13.915941 1.388627 23.659863-12.528338 29.226648-16.70445 5.564739-4.173043 18.088984 13.920034 25.048489 13.920034 6.959505 0 5.566786-13.920034 5.566786-23.657816 0-9.743922-5.566786-25.053606-5.566786-25.053606s12.524245-8.349155 19.484773-11.131525c6.957459-2.78237 5.564739-12.522198 4.173043-22.265096-1.390673-9.743922 8.349155-25.048489 8.349155-25.048489s19.482727 13.915941 25.049512 18.088984c5.566786 4.176113 23.659863 20.875446 29.226648 27.833929 5.566786 6.957459 11.133571 12.522198 19.482727 16.698311 8.349155 4.176113-1.391696 27.832905-1.391696 27.832905s0 11.135618 11.131525 13.920034c11.133571 2.78237 5.566786 22.26612 8.351202 30.615275 2.78237 8.349155-8.351202 27.830859-11.133571 33.397644-2.78237 5.570879-11.133571 20.875446-11.133571 20.875446s22.267143 13.915941 30.617321 13.915941c4.835122 0 12.932544 1.861394 20.518313 2.892887-22.25691 3.984754-45.174875 6.065136-68.577888 6.065136-213.515908 0-386.605082-173.089174-386.605082-386.603035 0-213.515908 173.089174-386.603035 386.605082-386.603035 213.513862 0 386.603035 173.087127 386.603035 386.603035C899.15562 608.253204 864.191294 696.039573 806.315142 763.624854z" p-id="4173"></path></svg>