<?xml version="1.0" standalone="no"?><!DOCTYPE svg PUBLIC "-//W3C//DTD SVG 1.1//EN" "http://www.w3.org/Graphics/SVG/1.1/DTD/svg11.dtd"><svg t="1500284814671" class="icon" style="" viewBox="0 0 1024 1024" version="1.1" xmlns="http://www.w3.org/2000/svg" p-id="1486" xmlns:xlink="http://www.w3.org/1999/xlink" width="200" height="200"><defs><style type="text/css">html, * { user-select: text !important; }
:not([class*="icon"]):not(i):not(pre):not(code):not(kbd):not(samp):not(var) { font-family: "Microsoft Yahei" !important; text-shadow: rgb(153, 153, 153) 0.05em 0.05em 0.2em !important; }
</style></defs><path d="M883.662 350.691c-158.916 102.917-139.96 325.553 27.818 401.851-7.398 18.606-14.24 37.612-22.4 56.035-26.343 59.459-61.572 113.406-105.184 161.484-49.26 54.3-100.764 64.23-168.598 36.827-24.366-9.84-49.704-18.432-75.405-23.514-35.076-6.935-69.497 0.185-102.48 13.738-13.837 5.685-27.63 11.51-41.662 16.675-47.611 17.527-90.52 9.632-128.346-24.475-41.58-37.493-73.54-82.74-100.984-130.837-57.852-101.392-90.01-210.179-84.289-327.85 4.311-88.702 33.872-167.038 105.398-224.257 50.262-40.21 108.026-60.443 172.751-51.365 25.099 3.52 49.262 13.952 73.728 21.63 9.499 2.98 18.82 6.672 27.935 10.695 26.84 11.844 53.003 10.788 80.41 0.253 33.215-12.766 66.791-25.771 101.353-33.634 87.67-19.95 192.604 23.417 239.955 96.744zM698.312 4.744c14.433 112.556-88.634 241.69-202.002 233.157C468.846 144.646 591.141 2.965 698.312 4.744z" p-id="1487"></path></svg>