<?xml version="1.0" encoding="utf-8"?>
<!-- Generator: Adobe Illustrator 20.0.0, SVG Export Plug-In . SVG Version: 6.00 Build 0)  -->
<svg version="1.1" id="图层_1" xmlns="http://www.w3.org/2000/svg" xmlns:xlink="http://www.w3.org/1999/xlink" x="0px" y="0px"
	 viewBox="0 0 200 200" style="enable-background:new 0 0 200 200;" xml:space="preserve">
<style type="text/css">
	.st0{fill:#FFEC00;}
</style>
<path class="st0" d="M111.6,140.5c0.6-1.8,2.7-5,2.7-5l-2.4-5l-3.2,3.2l-3.8,2.1l3,5C107.7,140.8,111,142.3,111.6,140.5L111.6,140.5
	z M102.7,142l-4.1-5l-4.1-5h-2.1c0,0,3.5,5.9,4.4,7.4c0.9,1.5,4.1,5.6,4.1,5.6s3.8,1.8,5.9,2.1c2.1,0.3,3.2,0.3,3.2,0.3l5,0.9
	l-6.2-3L102.7,142L102.7,142z M116,141.1l0.3-3.2l-2.7,3.5L116,141.1L116,141.1z M60.2,52.2c3.8-0.6,8-3.2,8-3.2l-7.1,0.3
	c0,0-5.6,1.2-6.8,2.7c-1.2,1.5-1.8,3.2-1.8,3.2l3.2,0.6C55.8,55.7,56.3,52.8,60.2,52.2L60.2,52.2z M134.3,139.6
	c-1.8-1.5-5.3,0.3-5.3,0.3l-2.1-2.4l-1.2,3.5l4.4,2.4l2.4,3.2l3.5,1.8l1.2-1.8l3,3l0.9-3.2l-3-3.5
	C138.1,142.9,136.1,141.1,134.3,139.6L134.3,139.6z M100.2,12.7C52,12.7,12.9,51.8,12.9,100s39.1,87.3,87.3,87.3
	c48.2,0,87.3-39.1,87.3-87.3S148.4,12.7,100.2,12.7L100.2,12.7z M100.2,24.6c25.9,0,48.7,13,62.3,32.9h-7l-7.1-1.5l-7.4-2.1
	l-1.5-2.4l-5.9-0.6h-3.2l1.5,3.8l-7.1,0.6c0,0-1.8-3-3.2-3c-1.5,0-7.1,0.3-7.1,0.3s-3.8-0.9-5-2.1c-1.2-1.2-7.7-2.1-7.7-2.1l-5.3-3
	L90,45.1L88.5,46l6.2,3.2c0,0-3.5,1.8-5,1.8s-5.3,0.6-5.3,0.6l-6.2,2.1l-7.1,0.6l-4.4,2.1l-5.6,2.1l-6.8-0.9l-5.9,0.3l-5,1.2
	L38,57.5c0,0,0,0-0.1,0C51.5,37.6,74.3,24.6,100.2,24.6L100.2,24.6z M100.2,175.4c-41.6,0-75.4-33.8-75.4-75.4
	c0-11.9,2.7-23.1,7.6-33l0,0l-0.9,4.7l5.3,4.7l3.8,5.6l-0.6,3.8l2.7,3.8c0,0-3.2,0.9-5,0.3c-1.8-0.6-5.9,0.9-5.9,0.9l-1.2,5.6
	l5.3-0.3l1.5,3.8l4.1,9.4c0,0,5.6,11.8,5,14.2c0,0,6.5-2.4,8.6-4.7c2.1-2.4,3.8-6.2,3.8-6.2l-2.4-3.5l-5.6-2.1l-5.6-4.7l-3.8-3.2
	l1.8-2.7c0,0,2.1-2.1,3.2-0.9c1.2,1.2,0.6,3.2,2.4,4.4c1.8,1.2,3.5,5,5.3,5.6c1.8,0.6,4.7,3.2,7.4,3.2c2.7,0,5.3,0.6,6.5,1.8
	c1.2,1.2,3.8,3,3.5,4.4c-0.3,1.5,1.2,7.7,3.2,9.7c2.1,2.1,5,5.6,5,5.6s-0.9-3-1.5-4.7c-0.6-1.8,0-4.4,1.2-5.6c1.2-1.2,3.2-3,4.1-4.7
	c0.9-1.8,5-3,6.2-0.9c1.2,2.1,3.5,4.7,3.5,4.7l1.2,4.4l1.2,5.9l3.8,5.6l-0.6-3.8c0,0-4.1-6.5-1.8-8.6c2.4-2.1,5.6-1.2,5.6-1.2v3.2
	l-1.2,3.2l3.8-4.4l-1.2-4.7l-1.8-3.5l2.7-0.6l-1.2-2.1c0,0,4.7,1.5,6.2,0.3c1.1-0.9,3.2-3,4.3-4.1l0.7,3.2l1.2-3.2l-1.2-0.5l0.1-0.1
	l1.5-4.4l-1.5-6.2v-2.4l-1.5-3.8c0,0,2.7-1.2,3.8,0.3c1.2,1.5,2.7,6.8,2.7,6.8l4.1-3.2l-1.5-3.5c0,0,1.8-1.8,3.2-2.7
	c1.5-0.9,5.9-5.6,5.9-5.6l2.4-0.6l2.1-4.4c0,0-1.5-3.2-3-3.5c-1.5-0.3-3.2-2.7-3.2-2.7s5.6-2.1,7.1-2.7c1.5-0.6,6.8,0,6.8,0l5.3-1.8
	l-0.9,3.5l-0.6,7.4l3.2-3l3-4.1l3-2.7l9.2-1.8l1-1.4c5.2,10.3,8.2,21.9,8.2,34.2C175.6,141.6,141.9,175.4,100.2,175.4L100.2,175.4z
	 M114.5,116.6l1.2,5l2.1,3.2l1.2,4.7c0,0,1.2,0,1.2-2.4s-3.2-7.1-3.2-7.1L114.5,116.6L114.5,116.6z M126.9,99.4c3-1.2,6.2-3,6.2-3
	s0.9-3.5,1.5-5c0.6-1.5,2.4-2.4,2.4-2.4v-3.5c0,0-1.8-0.3-3,1.5c-1.2,1.8-3,5.6-3,5.6s-2.4,2.1-3.5,2.7c-1.2,0.6-4.4,4.7-4.4,4.7
	l1.8,2.4C124.8,102.4,124,100.6,126.9,99.4L126.9,99.4z M141.1,143.7l4.7,0.3l-2.7-2.7L141.1,143.7L141.1,143.7z"/>
</svg>
