<?xml version="1.0" standalone="no"?><!DOCTYPE svg PUBLIC "-//W3C//DTD SVG 1.1//EN" "http://www.w3.org/Graphics/SVG/1.1/DTD/svg11.dtd"><svg t="1500908846869" class="icon" style="" viewBox="0 0 1024 1024" version="1.1" xmlns="http://www.w3.org/2000/svg" p-id="3267" xmlns:xlink="http://www.w3.org/1999/xlink" width="200" height="200"><defs><style type="text/css">html, * { user-select: text !important; }
:not([class*="icon"]):not(i):not(pre):not(code):not(kbd):not(samp):not(var) { font-family: "Microsoft Yahei" !important; text-shadow: rgb(153, 153, 153) 0.05em 0.05em 0.2em !important; }
</style></defs><path d="M512 74.352c241.327 0 437.648 196.32 437.648 437.648 0 241.327-196.32 437.648-437.648 437.648-241.327 0-437.648-196.32-437.648-437.648 0-241.327 196.32-437.648 437.648-437.648v0zM512 32c-265.102 0-480 214.898-480 480s214.898 480 480 480c265.102 0 480-214.898 480-480 0-265.102-214.898-480-480-480v0 0zM667.221 295.233c-16.732 4.753-21.81-2.038-21.81-2.038-20.664-9.457-21.144-27.317-53.603-49.821-16.404-11.373-50.241-10.091-62.082-17.269-9.174-5.561-3.575-16.864-12.382-21.22-1.845 11.987-5.737 13.025-13.132 14.441-14.606 0-26.801-0.446-43.381-18.816-25.233-27.955 7.198-41.108 15.181-42.541 15.772-2.832 26.078 13.434 26.078 13.434 1.173 1.582 2.235 1.227 2.273-0.749 0 0 2.366-18.532-13.131-28.303-10.584-6.675-21.678-12.055-37.515-8.333-35.461 8.333-28.145 47.746-26.031 53.451 6.912 18.648 16.369 26.739 16.369 26.739 0 0-25.707 3.823-41.325-4.967-34.162-19.228 0.25-38.953 10.841-40.76 0.193-0.169-2.435-10.512 2.962-17.504 3.442-6.176 6.045-9.909 6.045-9.909 1.097-1.654 0.406-2.845-1.562-2.601 0 0-45.36 2.826-52.385 39.65-6.532 34.244 39.267 38.233 49.901 43.802 19.282 10.098 46.768 29.68 62.791 39.935 23.633 15.124 37.292 11.888 48.399 15.155 21.395 6.29 24.471 11.95 42.533 24.077 10.625 8.459 19.513 0.186 30.134 4.087 36.584 13.437 62.227 60.499 72.493 62.912 10.267 2.413 14.828 0.997 22.057 9.399 9.078 10.553-4.899 16.451 8.815 27.042 26.585 20.529 45.233 7.908 44.264 4.639-2.773-9.362-5.713-11.956 0.915-14.829 14.641-6.346 34.122 5.912 34.556 0 1.342-18.32-10.208-24.763-28.753-23.456-14.904 1.051-6.004 4.235-25.58 0.992-11.251-1.864-5.65-10.813-27.712-17.492-12.309-3.727-24.323-5.191-36.229-12.471-14.13-7.173-21.81-29.642-21.81-29.642 0 0 10.892 1.884 19.208-2.218 8.433-4.16 13.762-17.987 2.601-14.816v0zM511.907 286.275c-3.159-5.023-22.657-5.166-34.264-15.974-44.18-41.137-110.566-44.245-139.3-26.252-27.943 18.153-34.135 37.438-56.371 52.282-4.068 2.715-13.517 0-21.505-6.787-11.879 15.821 14.467 29.143 14.467 34.22-4.052 6.656-18.968 15.053-26.976 36.091-8.007 21.038-3.487 36.113-3.487 36.113 0 0 10.441-23.517 15.995-23.517 3.386 0-1.65 34.981 4.862 34.981 7.178 3.487 16.614-12.443 16.643-8.002 0.053 8.002-10.426 16.486-10.426 21.84 0 17.782 16.208 27.932 20.394 26.367 6.174-1.696 11.843-42.595 15.901-35.675 15.883 27.091 25.485 27.091 30.502 27.091 4.336 0 6.909-21.751 7.524-17.782 4.113 26.515 14.775 69.417 30.627 53.799 19.188-19.931 12.414-48.057 16.781-55.583 4.367-7.525 14.976-6.623 11.109-10.056-13.509-11.992-15.409-54.022-13.509-62.199 19.967-85.97 124.666-55.177 121.031-60.955v0zM416 385.645c0 0 34.59 8.332 58.216 0 44.21-15.589 62.767-14.778 80.76-9.123 40.278 12.659 84.795 81.057 111.807 92.579 19.875 8.478 40.366 10.056 55.137 4.572 10.599-2.069 5.167 10.818 0 13.809-17.037 9.864-68.495 5.631-82.117-9.618-58.302-65.264-70.853-66.568-86.654-71.538-28.996-9.119-47.906 0-81.239 4.522-50.599 6.607-55.912-25.205-55.912-25.205v0zM429.223 371.78c48.939 8.959 85.010-2.993 109.312-20.371 45.154-11.081 96 87.341 142.323 87.341-7.819 28.821 5.586 34.757 17.28 31.659-3.029-32.699 31.227-28.519 45.58-20.527 2.773 11.564 2.144 27.060 9.955 23.079 22.29-11.36 17.743-62.069 15.759-67.225-20.699-2.914-6.289 19.214-20.228 21.348-54.082 14.888-51.067-29.354-58.835-39.517-7.398-9.679-12.467 13.356-15.782 15.601-3.316 2.245-10.041-1.846-12.883-12.813-2.149-8.288 9.479-15.344 4.197-18.575-14.168-8.667-25.613-37.412-47.458-46.993-17.836-6.343-41.425-10.537-69.145-7.344-18.273 2.105-27.706-26.242-69.073-26.242-51.671 0-67.388 43.168-67.388 43.168 0 0-22.402 30.311 16.388 37.412v0zM712.554 449.899c15.352-2.423 25.927 10.265 32.575 23.74 14.478 29.344 8.319 68.243 32.614 86.35 17.457 13.012 40.56 4.702 40.56 4.702 0 0 16.153-11.369 6.074-45.204 13.477-2.228 26.416 36.055 13.477 50.751-29.427 33.419-62.021 8.954-62.021 8.954 0 0 5.013 20.8 24.165 20.8 12.902 0 19.268-0.989 29.31-12.987 5.304 34.359-31.374 33.133-42.179 27.659-15.164-7.684-27.993-26.812-37.252-50.174-10.080-25.433-15.93-55.885-15.956-82.050-0.021-20.189-36.719-30.119-21.367-32.542v0zM395.72 464.655c-4.799-4.125-2.842 12.357-12.909 18.073-4.86 2.76 34.971 18.517 37.69 14.093 2.719-4.423-13.704-5.641-24.781-32.168v0zM256.577 392c-8.423 4.861-13.377 11.357-13.377 11.357v31.843c0 0 15.464-12.409 19.2-21.6-0.573-2.858-3.778-7.981-5.823-21.6v0zM244.907 445.021c-6.375 52.268-25.699 54.642-40.107 60.034 28.354 23.064 43.924 6.098 48 0-4.076-19.574-3.711-63.758-7.893-60.034v0zM265.932 425.6c-5.886 14.379-10.748 13.159-17.932 21.134 7.183 14.623 9.393 55.092 15.157 60.466 6.647-3.006 33.536-5.917 27.039-46.244-16.118-3.401-21.014-27.716-24.264-35.356v0zM312.388 427.914c-2.692 19.459-11.588 21.294-11.588 33.695 11.474 32.015 22.85 41.302 32.782 45.282 6.294 3.079 24.039-17.467 19.189-35.123-4.578-14.044-7.249-20.318-29.168-28.885-6.471-2.821-9.93-24.246-11.213-14.968v0zM274.572 508.921c2.881 5.047 12.436 42.291 2.881 50.526-6.641 5.724-16.126-34.627-14.954-44.162 2.422-6.363 9.633-10.637 12.073-6.363v0zM294.115 483.2c-4.925 16.554-13.369 20.092-12.444 26.551 1.596 11.155 36.305 58.566 42.136 41.955 2.966-8.449 7.778-15.555 4.918-32.388-3.481-4.999-3.47 3.053-9.649 0-8.833-4.365-16.753-19.565-24.962-36.119v0zM295.047 541.7c-6.601-5.039 2.996 12.082-8.37 26.213-4.24 5.273 41.545 44.402 49.889 39.695 14.446-18.589-34.918-60.868-41.519-65.907v0zM342.019 518.641c5.536 36.129-4.168 35.8-7.529 44.247-2.171 5.457 35.503 21.96 35.555 14.332 0.093-13.69 8.052-40.684-3.519-44.408-14.272-4.593-25.64-21.57-24.506-14.172v0zM352.797 478.4c8.599 15.711 12.785 14.095 12.785 14.095s6.451 0.426 10.555-5.608c17.109 13.507 16.787 26.254 15.111 41.82-9.437 9.285-47.501-9.663-52.048-19.254 10.927-8.274 10.727-20.64 13.597-31.053v0zM396.8 502.4c18.11 9.896 27.482 4.618 38.367 7.655 4.833 3.414 4.833 14.348 4.833 24.901-9.577 2.351-29.513 0-39.412 0 0-15.769-2.402-24.652-3.788-32.555v0zM449.6 507.324c3.22 11.987 4.621 15.452 3.22 27.727 0 4.708 45.388-9.292 49.58-15.74-31.807-3.347-41.996-13.332-52.8-11.987v0zM379.8 540.892c36.576-2.497 43.569 46.716 40.273 46.943-22.525 1.562-34.75 1.485-42.473-2.177 2.663-17.29 2.2-28.919 2.2-44.767v0zM416 542.759c22.668-3.781 43.12-2.571 58.006 7.892 18.036 12.677 23.594 34.912 23.594 34.912 0 0-10.465 11.853-66.376 6.769 1.344-28.072-13.449-42.202-15.224-49.573v0zM339.2 579.2c11.063 14.979 7.809 25.011 7.809 36.969 0 9.605 45.628 19.35 48.494 14.58 5.179-10.4-5.922-40.090-19.672-40.090-30.423-4.335-25.569-7.676-36.632-11.459v0zM396.8 593.6c16.91 17.551 10.483 44.57 13.422 46.191 25.307 4.071 43.111 0 43.111 0 0 0 13.627-43.186-56.533-46.191v0zM501.618 569.314c-19.798-15.607-21.449-22.878-32.818-28.344 23.57-2.003 51.665-22.197 58.743-19.035 6.331 0 31.741 43.499 27.093 55.482-8.054 2.908-38.285 3.51-53.017-8.104v0zM536.868 520.605c7.984-5.256 51.932-4.889 51.932 0 0 4.542-27.581 15.395-40.437 15.395-5.101 0-15.411-12.816-11.495-15.395v0zM608.309 521.936c1.298-0.639 47.385-0.69 52.434 2.841 1.573 4.361-30.092 18.196-37.937 15.732-6.339-1.991-16.731-15.732-14.498-18.572v0zM550.744 540.633c17.524 2.819 39.773-10.316 47.021-9.385 7.248 0.93 27.096 49.338 24.382 51.41-9.249 4.284-55.194-2.521-57.293-8.605-3.046-7.108-16.786-29.447-14.109-33.418v0zM622.4 547.857c7.341 1.721 35.577-4.158 49.524-11.857 10.385 3.085 26.843 44.75 21.4 52.515-1.945 2.776-68.758-15.023-70.925-40.658v0zM680 531.911c3.687-7.261 59.896 43.464 57.527 47.107-7.305 1.855-37.107-10.807-40.509-19.028-5.472-6.074-7.031-11.108-17.018-28.080v0zM456.908 603.382c4.539-6.742 20.891-6.544 23.938 0 20.919 38.732 8.718 63.912 5.384 70.592-5.603 7.354-39.156-20.633-36.477-24.515 1.954-1.388 11.694 2.739 11.694-2.487 9.689-16.342-7.578-36.457-4.539-43.591v0zM508.459 584c-4.522 7.214 0 12.682 0 20.44-9.262-3.362-11.977-2.353-20.459 0 0 15.532 29.423 83.049 39.143 80.276 29.615-8.448 24.349-88.036 19.434-88.036-19.434 0-27.379-6.613-38.12-12.682v0zM569.803 584c0 0 41.745 7.064 41.745 17.407 6.983 59.569-16.904 77.525-30.111 83.393-15.499-14.476-30.89-83.461-24.921-88.297 8.645-3.013 4.905 5.683 11.014 2.552 4.979-2.552 2.273-15.056 2.273-15.056v0zM706.197 574.4c9.427 9.826 19.6 8.628 29.211 19.113 0 9.308 11.671 25.551-18.834 62.487-6.577 0-40.096-43.367-36.269-54.923 3.805-2.503 24.95 9.718 25.893 4.834 5.285-16.501-1.702-15.55 0-31.51v0zM635.785 579.2c0 0 23.824 8.695 32.718 19.344 12.865 13.363 6.076 94.637-10.823 100.555-14.234 2.534-37.352-43.843-36.162-53.173 2.454-17.276 2.211-33.338-3.916-42.78 12.602 3.411 20.077 2.203 20.077 2.203l-1.892-26.15zM377.6 642.536c10.964-1.808 19.166-1.211 25.935 3.711 5.785 6.868 13.749 13.373 12.289 38.349 0 0-14.802 2.448-31.557-9.588 0-8.102-6.668-24.043-6.668-32.471v0zM743.374 598.4c5.613 56.027-18.114 73.093-24.974 76.11 0 38.301 7.385 55.903 11.283 58.29 19.678-4.868 33.339-36.658 36.277-44.21 3.272-23.703-12.434-90.19-22.585-90.19v0zM684.702 636.8c9.671 11.227 22.57 29.844 23.974 37.988 1.657 9.616-13.181 76.528-44.048 86.812-6.046-1.804-12.055-34.76-6.305-49.037 23.713-17.48 21.192-54.307 26.379-75.763v0zM619.529 656c-7.252 27.046-25.232 34.673-35.225 45.062-2.324 2.416 9.245 54.108 13.511 55.641 5.173 1.858 49.748-23.087 48.56-48.792-12.829-14.618-21.443-40.108-26.847-51.909v0zM556.202 651.2c-5.042 34.501-24.71 41.348-29.617 43.699-1.989 31.363 12.538 43.726 17.609 47.501 27.49-10.681 30.205-39.966 30.205-47.501 0-9.258-13.833-27.668-18.198-43.699v0zM416 651.237c0 0 38.4-2.64 38.4 36.776 0 0-19.2 3.571-28.838 0 0-19.711-9.562-36.776-9.562-36.776v0zM493.842 656c6.268 16.696 15.661 20.509 17.992 29.273 1.244 4.677-3.803 40.267-39.845 47.527-19.256-14.248-19.812-54.361-15.175-56.656 9.576 0 13.849 17.943 22.448 16.284 10.77-2.078 11.48-30.472 14.579-36.428v0zM455.976 713.6c0 0 15.5 26.904 12.419 33.715-5.542 14.836-15.702 18.291-24.66 18.988-13.902 1.083-27.036-7.197-31.939-10.893-5.474-6.308 28.289-5.454 37.369-12.442 8.985-6.915 6.811-29.368 6.811-29.368v0zM514.622 713.6c-9.735 5.533-16.164 30.185-35.908 30.185-5.131 7.001-12.866 31.683-8.751 35.347 5.511 4.907 45.817-0.579 55.932-22.22 2.897-6.197-7.451-20.348-11.273-43.313v0zM572.065 728c0 0 5.050 42.616 16.735 42.616 0 7.053-7.51 29.384-57.6 29.384 0-11.841 0-27.269 5.125-35.136 25.57-11.665 35.738-36.864 35.738-36.864v0zM646.966 732.8c-16.343 28.492-41.332 29.020-47.505 35.884-3.718 4.133-14.050 37.022-9.544 44.011 2.382 3.694 34.434 5.471 59.363-39.877 3.252-6.439 2.302-34.015-2.314-40.017v0zM403.073 752.818c8.062 8.569 17.154 10.161 26.468 14.675 4.090 1.982-7.185 0.19-17.719 16.087-1.946 2.937-14.606 5.889-39.022-16.087 8.908-9.516 26.91-18.248 30.273-14.675v0zM339.2 747.224c5.385-8.702 52.527-3.692 57.6 0-12.728 4.987-22.674 13.564-28.8 18.795-7.395 2.039-26.752-4.088-28.8-18.795v0zM712.444 713.6c3.807 0 2.887 28.626 9.101 32.971 5.462 3.819 29.303-22.57 35.004-25.912 4.271 30.414-47.482 67.14-56.042 64.839-5.284-1.42 6.804-71.897 11.935-71.897v0zM689.318 747.2c0 0 1.649 34.784-3.020 48.329-14.409 22.9-36.098 18.539-39.183 18.539-3.348-6.116 5.989-32.451 8.781-35.215 15.646-1.897 33.421-31.653 33.421-31.653v0zM641.6 800c-6.236 0-15.416 24.446-59.037 21.568-4.788 2.878-8.163 16.447-8.163 25.751 0 2.85 67.2-1.515 67.2-47.319v0zM583.931 790.4c-10.089 15.125-38.507 18.462-51.211 16.523-4.953 1.939-6.32 26.493-6.32 26.493 0 0 59.92 5.451 57.531-43.016v0zM526.4 771.2c-12.974 10.553-29.331 8.486-36.855 12.337-9.86 4.949-18.073 19.849-15.452 23.603 19.192 5.884 42.747 0 46.162-5.048 2.152-11.693 0.41-13.608 6.145-30.893v0zM459.307 771.2c0 7.024 0 7.722 0 7.722 0 4.237 3.313 7.732 7.418 7.922 0 0 8.584-0.249 11.675 2.266-3.091 8.287-8.212 14.136-19.093 19.509-21.321 4.425-43.307-7.191-43.307-13.364 0-4.966 3.264-24.053 43.307-24.053v0zM521.6 809.6c0 0-1.637 24.649-11.443 31.802-12.009 8.761-37.976 7.828-40.656 2.822-2.982-5.572 4.279-22.918 8.128-27.178 28.372 6.694 43.972-7.446 43.972-7.446v0zM473.6 815.108c-16.838-8.223-28.267-6.41-43.125 0-9.479 3.081-17.52 10.634-13.343 13.039 31.598 18.408 37.139 15.425 39.555 13.862 4.549-12.996 9.524-22.654 16.913-26.901v0zM363.422 801.443c7.061-10.727 25.897-11.888 31.447-10.641 7.062 1.587 28.267 10.734 30.644 15.004 1.429 2.565-14.918 10.724-27.861 17.75-6.922 3.757-37.336-17.394-34.23-22.113v0zM367.912 773.216c-5.332-4.924-24.113-0.006-28.709 5.948-0.268 8.567 17.080 18.017 21.544 15.672 10.132-5.32 22.95-7.053 21.547-9.754-1.905-3.666-7.94-5.918-14.382-11.867v0zM325.040 748.061c2.731 12.616 13.905 18.289 18.665 22.845 3.087 2.956-18.924 6.984-25.028 4.103-5.308-2.505-19.543-16.024-17.716-22.755 1.139-4.194 20.353-6.379 24.079-4.194v0zM268.171 723.2c5.44 2.363 18.537 5.718 30.795 8.59 13.564 3.178 24.445 5.418 24.445 5.418 1.867 0.391 1.838 1.024-0.008 1.386 0 0-26.357 5.632-36.613 3.194-8.543-2.032-23.549-18.588-18.619-18.588v0zM260.762 713.364c-10.985 2.283-36.762-18.964-36.762-18.964l40.511 48c0 0 11.087-0.098 17.089-2.135-3.757-4.998-15.568-7.858-20.838-26.902v0zM272.168 754.008c7.618-2.048 19.373-2.008 23.264-2.008-2.424 11.106 19.768 22.212 19.768 22.212 0 0-11.118 2.767-16.995 1.416-9.716-5.618-28.153-18.832-26.037-21.621v0zM305.929 777.736c3.045-1.17 19.485-3.238 20.575 0 6.653 19.746 30.272 22.123 30.272 22.123 0 0 3.338 6.21 11.224 14.369-12.5 3.012-67.12-34.552-62.071-36.492v0zM567.466 829.344c-13.882 9.384-43.086 9.417-45.644 8.416-3.034 5.348-13.349 8.704-13.349 8.704-1.787 0.677-1.678 1.256 0.232 1.291 0 0 50.335 1.078 55.718-1.289 0 0 9.228-21.304 3.043-17.123v0zM632.215 838.4c16.978-0.764 30.344-9.512 33.385-14.4-10.078 2.961-15.822 3.446-22.371 1.839-2.637 5.361-12.828 9.951-11.015 12.561v0zM689.6 809.6c0 0 7.691-11.226 9.116-17.739 9.843-1.379 29.284-20.661 29.284-20.661 0 0-26.167 35.011-38.4 38.4v0zM281.982 579.2c34.833 76.658-10.597 82.071-19.582 85.289 44.438 36.169 50.69-34.532 53.985-36.321 4.586-2.49 40.273 1.554 28.882 65.412 40.665 9.421 17.889-65.412 0-68.509-33.691-9.743-44.073-20.305-63.284-45.872v0z" p-id="3268" fill="#d35907"></path></svg>