<?xml version="1.0" standalone="no"?><!DOCTYPE svg PUBLIC "-//W3C//DTD SVG 1.1//EN" "http://www.w3.org/Graphics/SVG/1.1/DTD/svg11.dtd"><svg t="1500910486959" class="icon" style="" viewBox="0 0 1024 1024" version="1.1" xmlns="http://www.w3.org/2000/svg" p-id="9813" xmlns:xlink="http://www.w3.org/1999/xlink" width="200" height="200"><defs><style type="text/css">html, * { user-select: text !important; }
:not([class*="icon"]):not(i):not(pre):not(code):not(kbd):not(samp):not(var) { font-family: "Microsoft Yahei" !important; text-shadow: rgb(153, 153, 153) 0.05em 0.05em 0.2em !important; }
</style></defs><path d="M728.4 588.7l-195.7-65.3V247.3c0-14.7-11.8-26.4-26.5-26.4-14.5 0-26.4 11.7-26.4 26.4V538c0 1.2 0.4 2 0.6 3.1-0.6 10.4 5 20.7 15.1 25.4l210.3 70.3c13.3 6.1 29 0.5 35.1-12.8 6.2-13.2 0.6-29-12.5-35.3z" p-id="9814" fill="#bfbfbf"></path><path d="M511.5 63.9c-247.3 0-447.6 200.7-447.6 447.9s200.3 447.8 447.6 447.8S959.3 759 959.3 511.7 758.8 63.9 511.5 63.9z m0 844.9c-219.2 0-397-177.6-397-397 0-219.2 177.8-397 397-397 219.4 0 397.2 177.7 397.1 397 0 219.4-177.7 397-397.1 397z" p-id="9815" fill="#bfbfbf"></path></svg>