<?xml version="1.0" standalone="no"?><!DOCTYPE svg PUBLIC "-//W3C//DTD SVG 1.1//EN" "http://www.w3.org/Graphics/SVG/1.1/DTD/svg11.dtd"><svg t="1500909538013" class="icon" style="" viewBox="0 0 1024 1024" version="1.1" xmlns="http://www.w3.org/2000/svg" p-id="4181" xmlns:xlink="http://www.w3.org/1999/xlink" width="200" height="200"><defs><style type="text/css">html, * { user-select: text !important; }
:not([class*="icon"]):not(i):not(pre):not(code):not(kbd):not(samp):not(var) { font-family: "Microsoft Yahei" !important; text-shadow: rgb(153, 153, 153) 0.05em 0.05em 0.2em !important; }
</style></defs><path d="M512 68.266667C266.922667 68.266667 68.266667 266.922667 68.266667 512s198.656 443.733333 443.733333 443.733333 443.733333-198.656 443.733333-443.733333S757.077333 68.266667 512 68.266667zM865.723733 628.3264c-58.129067-7.4752-133.666133 7.850667-127.146667 49.5616 5.563733 35.566933 49.2544 27.511467 87.825067 38.946133C759.3984 819.5072 643.720533 887.466667 512 887.466667 304.64 887.466667 136.533333 719.36 136.533333 512S304.64 136.533333 512 136.533333c18.670933 0 36.864 1.809067 54.784 4.437333-34.986667 38.8096-62.395733 68.5056-87.210667 86.596267-38.058667 27.7504-22.459733 67.618133 26.999467 101.853867s92.4672 48.5376 98.2016 4.096c5.7344-44.475733 4.130133-81.851733 28.194133-112.196267 11.810133-14.848 27.272533-33.9968 41.5744-47.4112 11.9808 5.768533 23.517867 12.0832 34.747733 19.080533-4.881067 6.997333-12.151467 13.482667-19.7632 19.6608-17.134933 13.994667-24.337067 40.106667-13.073067 60.484267 11.264 20.3776 96.938667-10.990933 95.197867 11.0592-1.672533 22.050133-80.008533-2.9696-93.730133 45.192533-13.687467 48.196267 0.068267 51.0976-68.676267 65.672533-68.744533 14.609067-110.455467-12.356267-172.612267 45.909333-62.088533 58.231467-76.526933 50.961067-73.147733 107.451733 3.413333 56.456533-24.644267 48.708267-55.261867 49.390933-30.651733 0.7168-47.889067 1.9456-47.684267 50.107733 0.170667 48.162133 4.949333 67.549867 51.5072 65.092267 46.523733-2.389333 57.856-69.563733 114.346667-94.071467 56.4224-24.507733 105.813333-27.579733 134.7584 15.1552s99.601067 45.943467 128.375467 33.211733c28.808533-12.731733 74.308267-131.140267 120.0128-125.474133 20.104533 2.491733 48.196267 13.380267 73.216 26.794667-3.140267 20.616533-7.68 40.721067-14.0288 60.1088C867.6352 628.667733 866.850133 628.497067 865.723733 628.3264z" p-id="4182" fill="#1296db"></path></svg>