<?xml version="1.0" standalone="no"?><!DOCTYPE svg PUBLIC "-//W3C//DTD SVG 1.1//EN" "http://www.w3.org/Graphics/SVG/1.1/DTD/svg11.dtd"><svg t="1500284783373" class="icon" style="" viewBox="0 0 1024 1024" version="1.1" xmlns="http://www.w3.org/2000/svg" p-id="762" xmlns:xlink="http://www.w3.org/1999/xlink" width="200" height="200"><defs><style type="text/css">html, * { user-select: text !important; }
:not([class*="icon"]):not(i):not(pre):not(code):not(kbd):not(samp):not(var) { font-family: "Microsoft Yahei" !important; text-shadow: rgb(153, 153, 153) 0.05em 0.05em 0.2em !important; }
</style></defs><path d="M489.7 460h301.1c41.4 0 75.3-33.9 75.3-75.3s-33.9-75.3-75.3-75.3H489.7c-41.4 0-75.3 33.9-75.3 75.3 0.1 41.5 33.9 75.3 75.3 75.3z m208 174.5c0-41.4-33.9-75.3-75.3-75.3H314.5V139.1c0-41.4-33.9-75.3-75.3-75.3s-75.3 33.9-75.3 75.3v497.3l0.1 1.9 0.1 1.9 0.2 1.9 0.2 1.9 0.3 1.9 0.3 1.9 0.4 1.8 0.4 1.8 0.4 1.8 0.5 1.8 0.5 1.8 0.6 1.8 0.6 1.7 0.7 1.7 0.7 1.7 0.7 1.7 0.8 1.7 0.8 1.6 0.8 1.6 0.9 1.6 0.9 1.6 1 1.5 1 1.5 1 1.5 1.1 1.5c0.7 1 1.5 1.9 2.2 2.8l1.2 1.4 1.2 1.3 1.2 1.3 1.3 1.3 1.3 1.3 1.3 1.2c1.3 1.2 2.7 2.4 4.1 3.5l1.4 1.1 1.5 1.1 1.5 1 1.5 1 1.5 1 1.6 0.9 1.6 0.9 1.6 0.9 1.6 0.8 1.6 0.8 1.7 0.7 1.7 0.7 1.7 0.7 1.7 0.6 1.8 0.6 1.8 0.5 1.8 0.5 1.8 0.4 1.8 0.4 1.8 0.4 1.8 0.3 1.9 0.3 1.9 0.2 1.9 0.2 1.9 0.1 1.9 0.1h385.1c41.8 0 75.6-33.9 75.6-75.3z m-394.4 0c0 35.2-28.8 64.1-64.1 64.1h-1.6l-1.6-0.1-1.6-0.1-1.6-0.2-1.6-0.2-1.6-0.2-1.6-0.3-1.6-0.3-1.6-0.3-1.5-0.4-1.5-0.4-1.5-0.4-1.5-0.5-1.5-0.5-1.5-0.6-1.4-0.6-1.4-0.6-1.4-0.7-1.4-0.7-1.4-0.7-1.3-0.7-1.3-0.8-1.3-0.8-1.3-0.9-1.3-0.9-1.2-0.9-1.2-0.9-1.2-1-1.2-1-1.1-1-1.1-1-1.1-1.1-1.1-1.1-1.1-1.1-1-1.2-1-1.2-1-1.2-0.9-1.2-0.9-1.3-0.9-1.3-0.8-1.3-0.8-1.3-0.8-1.3-0.9-1.3-0.7-1.4-0.7-1.4-0.7-1.4-0.6-1.4-0.6-1.5-0.6-1.5-0.5-1.5-0.5-1.5-0.5-1.5-0.4-1.5-0.4-1.5-0.3-1.5-0.3-1.6-0.3-1.6-0.2-1.6-0.2-1.6-0.1-1.6-0.1-1.6-0.1-1.6v-1.6c0-35.2 28.8-64.1 64.1-64.1h64.1v64zM790.8 809H489.7c-41.4 0-75.3 33.9-75.3 75.3s33.9 75.3 75.3 75.3h301.1c41.4 0 75.3-33.9 75.3-75.3S832.2 809 790.8 809z" fill="#d81e06" p-id="763"></path></svg>