<?xml version="1.0" encoding="utf-8"?>
<!-- Generator: Adobe Illustrator 20.0.0, SVG Export Plug-In . SVG Version: 6.00 Build 0)  -->
<svg version="1.1" id="图层_1" xmlns="http://www.w3.org/2000/svg" xmlns:xlink="http://www.w3.org/1999/xlink" x="0px" y="0px"
	 viewBox="0 0 200 200" style="enable-background:new 0 0 200 200;" xml:space="preserve">
<style type="text/css">
	.st0{fill:#353535;}
	.st1{fill:#FF0000;}
</style>
<path class="st0" d="M123.6,43.2l-0.1,3.5c0,0.3,0.1,0.6,0.4,0.9l0.3,0.3l0.4,0.2h0.1c0.2,0,0.3-0.1,0.4-0.2l0,0l0.2-0.6
	c0-0.1,0-0.1,0.1-0.2l0.2,0.2l0.3,0.6c0.3,0.5,0.7,0.6,0.9,0.6c0.2,0,0.5-0.1,0.8-0.3l0.9-1c0.1-0.1,0.2-0.1,0.2-0.1
	c0,0,0.1,0.1,0.2,0.5l0,0.2c0.1,0.8,0.5,1.1,1.1,1.1c0.2,0,0.4,0,0.6-0.1l1-0.5l0.3-0.5l0,0c0.4,0.5,1.3,0.7,2.6,0.7
	c0.7,0,0.8-0.6,0.8-0.9l0-0.9v0l0.2,0.1l0.4,0.7l0.3,0.3c0.4,0.6,0.9,0.9,1.6,0.9c0.6,0,1-0.1,1.2-0.2l0.4-0.6l0.2-0.9
	c0-0.3,0.2-0.6,0.4-0.7c0.6-0.7,0.5-1.3,0.3-1.6c-0.2-0.4-0.6-0.8-1.4-1.2l-2-0.7l-1.9-0.2c-0.4,0-0.8,0.2-1.4,0.5l-2.2,1.5
	c0,0-0.1,0-0.1,0c0,0-0.1,0-0.1-0.1l0-0.1c-0.2-0.4-0.5-0.9-1.1-0.9c-0.2,0-0.4,0.1-0.6,0.2l-1.2,1c-0.1-0.1-0.3-0.3-0.5-0.7
	l-0.5-1.1l0-0.1c-0.2-0.3-0.7-0.5-1.3-0.6c-0.1,0-0.2,0-0.2,0l1.3-1.1c0.2-0.3,0.2-0.7-0.1-0.9c-0.5-0.5-1.3-0.8-2.3-0.8h0l-1.3,0.1
	l-0.1,0c-0.4,0.2-0.4,0.8,0,1.9L123.6,43.2z"/>
<path class="st0" d="M109.9,52.4c0.5,0.9,0.4,1.6-0.3,2.2c-0.1,0-0.5-0.3-0.6-0.4l-0.8-0.8c-0.3-0.4-0.8-0.3-1,0.3
	c-0.2,0.5-0.2,0.8,0,1.1c0.4,0.6,0.7,1.1,1,1.4l1.3,0.8c0.6,0.3,0.9,0.6,1.2,1.1l0.6,1.2c0.3,0.4,0.7,0.7,1.2,0.7c0,0,0.1,0,0.1,0
	c0.4,0,0.6-0.2,0.7-0.5l0-0.1l-0.4-0.8c0.6,0.7,1.2,0.6,1.6-0.3l0.6-2c0.2-0.6,0.2-1.2-0.1-1.6c-0.3-0.5-0.9-0.8-1.6-0.8
	c-0.1,0-0.1,0-0.2,0c-0.2,0-0.3-0.1-0.3-0.2l1.2-2.4c0.3-0.6,0.2-1-0.1-1.1c-0.5-0.3-1-0.2-1.7,0.3l-0.5,0.4c0,0,0,0-0.1,0
	c0,0,0,0-0.1-0.1c-0.3-0.4-1-0.5-2.4-0.4l-0.1,0l-0.1,0.1c-0.3,0.2-0.2,0.7,0,1.1L109.9,52.4z"/>
<path class="st0" d="M151.3,63.9C151.2,63.9,151.2,63.9,151.3,63.9l-1.5,0.4c-0.1,0-0.1,0-0.1,0c0-0.1,0.1-0.2,0.4-0.4l0.7-0.4
	l0.6-0.4l0,0c0.2-0.2,0.1-0.5-0.3-0.8c-0.3-0.3-0.5-0.4-0.8-0.4h-0.1c-0.1,0-0.3,0.1-0.9,0.4l-0.6,0c-0.1-0.1-0.1-0.3-0.1-0.7
	c-0.1-0.4-0.3-0.7-0.7-0.7l-0.7,0.2c0,0,0,0,0,0l0.7-1c0.1-0.1,0-0.3,0-0.4c-0.1-0.2-0.4-0.3-0.8-0.4l-1.1-0.1l-0.8,0.9
	c-0.1,0.1-0.1,0.2-0.2,0.2l-0.4-1.3l0-0.1c-0.2-0.2-0.4-0.4-0.6-0.4c-0.4,0-0.7,0.4-0.9,0.8c0,0.1-0.1,0.1-0.1,0.1c0,0,0,0-0.1-0.1
	c-0.2-0.2-0.2-0.3-0.2-0.3l0.6-0.7c0.2-0.3,0.4-0.7,0.3-1l-0.9-1.6c-0.1-0.2-0.5-0.4-1.2-0.5c-1-0.1-1.1-0.3-1.1-0.3l0,0
	c-0.6-0.4-1.1-0.4-1.7,0.2c-0.4,0.5-0.6,1-0.6,1.6l0,0.7l-0.1,0.3l-0.4-0.8c-0.1-0.1-0.4-0.6-0.8-0.6c-0.2,0-0.5,0.1-0.7,0.4
	l-0.8,0.8c0,0,0,0-0.1,0c-0.1,0-0.2-0.2-0.3-0.6c0-0.4,0.1-1,0.4-1.8c0.2-0.5,0.2-1,0.2-1.3l-0.8-2.4l0-0.1c-0.4-0.5-1-0.7-1.7-0.6
	c-0.7,0.1-1.4,0.3-2.1,0.8c-0.5,0.4-0.8,0.7-0.7,1c0,0.2,0.2,0.5,0.5,0.7c0.2,0.1,0.3,0.2,0.3,0.3c0,0,0,0-0.1,0l-0.8,0l-0.5,0.1
	l-0.1,0c-0.4,0.3-0.6,0.6-0.6,1c0,0.5,0.4,1,1.3,1.6l0.2,0.2c0,0,0,0,0,0c-0.9,0.2-1.1,0.7-1.1,1.1c0,0.3,0.1,0.6,0.3,1L130,59
	c0.3,0.4,0.4,0.9,0.2,1.5l-1.1,0c0,0,0-0.1,0-0.1c0-0.1,0.1-0.1,0.2-0.2l0.5-0.2v-0.5l-0.9-1.2c-0.4-0.4-0.6-0.8-0.7-1.1
	c0-0.1,0-0.3,0.1-0.6l0.2-0.7l-0.7-1c-0.1-0.6,0-1.1,0.4-1.5c0.7-1,1.1-1.8,1.2-2.3c0-0.4,0-0.6-0.2-0.8c-0.1-0.1-0.4-0.2-0.6-0.2
	c-0.6-0.1-1.1,0.1-1.8,0.5c-0.7,0.4-1.3,1-1.9,1.8c-0.5,0.7-1,1.9-1.3,3.7c-0.1,0.2,0.1,0.4,0.3,0.6l0.3,0.4l-0.3,0.2
	c-0.3,0.1-0.5,0.2-0.5,0.4c-0.1,1.2,0.1,1.5,0.2,1.6c0.1,0.1,0.2,0.1,0.3,0.1c0.8,0.1,1.6,0.4,2.2,0.8c0.3,0.2,0.6,0.5,0.8,0.7
	l-0.1,0.1h-0.9c-0.1,0-0.2,0-0.3,0c-0.4,0-0.9,0-1,0.3c-0.1,0.1-0.1,0.3,0.1,0.5c0.4,0.6,0.9,1.1,1.4,1.3c0.7,0.3,1.3,0.2,1.7-0.3
	c0.1-0.1,0.1-0.1,0.2-0.2c0,0,0.1,0.1,0.1,0.4l0.3,0.7l0.3,0.5l5.8,0.7l0.9,0.5l0.4-0.2l-0.1-0.7c0-0.2-0.1-0.3-0.1-0.4L137,65
	l1.1-0.1l0.1-0.1c0.6-0.7-0.3-1.4-0.9-1.9l-1-0.7c0,0,0,0,0,0c0.2,0.1,0.4,0.2,0.7,0.3l2.2,1.6l0.2,0.6c0.1,0.2,0.2,0.5,0.9,0.6
	c0.5,0,1,0.3,1.3,0.9c0.2,0.3,0.3,0.6,0.3,0.8l-0.3,0.1c-0.3,0-1,0-1,0.4c-0.2,0.5-0.2,0.9,0,1.1c0.1,0.1,0.3,0.2,0.6,0.2
	c0.5,0,1-0.3,1.6-0.7c0,0,0.2,0,0.9,0.8l1.3,1.6l0.4,0.8l0.3,1.3c0.1,1.5-0.2,1.7-0.4,1.8l-0.2,0l0,0.2c0,0.1,0,0.2-0.5,0.6
	c-0.5,0.3-0.9,0.6-1,0.8l0,0.1c-0.1,0.3,0.1,0.7,0.6,1.1c0.6,0.6,0.6,0.8,0.6,0.8c-0.1,0-0.1,0-0.2,0l-0.8-0.2l-1,0.5
	c-0.2,0.1-0.4,0.3-0.4,0.5c-0.1-0.1-0.1-0.2-0.2-0.2c-0.2-0.2-0.4-0.3-0.7-0.3h0l-0.8-0.1c-0.1,0-0.2,0-0.2,0c-0.1,0-0.4,0-0.6,0.2
	c-0.1,0.1-0.1,0.2,0,0.4c0,0.1,0.1,0.1-0.2,0.3c-0.2,0.1-0.3,0.2-0.4,0.2c-0.1,0.1-0.2,0.1-0.3,0.2c-0.3,0.4-0.4,0.8-0.1,1.2
	c0.2,0.3,0.6,0.5,1.1,0.7l1.3,0.2l0.9-0.3l1.1,0l0.5,0.1l0.1,0c0.2-0.1,0.2-0.1,0.3-0.2c0.1-0.1,0-0.3-0.1-0.4
	c0-0.1-0.1-0.1-0.1-0.1h0.4c0.3,0,0.7,0.3,1,0.8l0.4,0.7l0.6,0.6l0.1,0c0.8,0.4,0.8,0.6,0.8,0.7v0.3c0,0.3,0.1,0.4,0.3,0.7
	c0.5,0.5,1.5,1.1,2.9,1.8c1.1,0.5,2.2,1,3.2,1.3c0.2,0.1,0.4,0.1,0.6,0.1c0.3,0,0.5-0.1,0.5-0.2c0.2-0.3,0-0.7-0.5-1.3l-1.1-1.3
	l-1-0.8c-0.4-0.2-0.6-0.6-0.6-0.9l0.1-0.2c0.1,0,0.1,0.1,0.2,0.1l0.5,0.6l0.2-0.2c0.1,0.1,0.2,0.2,0.3,0.3l1.3,1.1l0.9,0.5l0.6,0.6
	l1,0.5l-0.3-0.7C148.4,80.8,146.8,70.8,151.3,63.9z"/>
<path class="st1" d="M167.9,110.6c-0.1-0.1-0.2-0.3-0.1-0.7l0-1c-0.1-0.4-0.4-0.6-0.8-0.6c-0.1,0-0.1,0-0.2,0l-0.5,0.1
	c0,0,0-0.1,0-0.1c0.1-0.3,0.1-0.5,0.1-0.6c-0.1-0.1-0.2-0.2-0.3-0.2c-0.4-0.1-0.8-0.1-1.2,0c0.3-0.1,0.6-0.3,0.7-0.5
	c0.1-0.5-0.6-0.8-1.3-1l-2.5-0.6c0-0.1,0-0.3,0.1-0.8c0-0.3-0.3-0.6-0.7-0.9l-1.1-0.7l-0.5-0.4c0.2,0,0.6,0,0.8-0.2
	c0.2-0.3,0.2-0.8-0.7-2.6l-2-3.4c-0.5-1-0.9-1.4-1.5-1.4c-0.3,0-0.5,0.1-0.7,0.4l-1.2,2.3l-0.1,0.4l-0.1-0.2l-0.6-0.2l-0.3,0.7
	c-0.2,0.3-0.3,0.5-0.5,0.5l-0.6-0.3l-0.7-0.5c-0.6-0.3-1.1-0.3-1.6,0.1c0,0,0,0,0-0.1c0-0.1,0-0.2,0-0.2c0.1,0,0.3-0.1,0.3-0.1
	c0.2-0.2,0.2-0.4,0-1.1l-0.5-1.1c-0.1-0.3,0-0.5,0.1-0.8l0.4-0.8c0.1-0.4,0-0.7-0.4-1c-0.2-0.1-0.5-0.2-1-0.4
	c-0.6-0.2-0.9-0.4-1.1-0.5c-0.5-0.2-0.8-0.6-1.1-1c-0.5-0.7-0.9-1.1-1.3-1.3l-1.2-0.1l-1,0.3c-0.4,0-0.7,0-1.1-0.2
	c-0.7-0.4-1.4-0.6-1.9-0.6c-0.6,0-1.3,0.2-1.3,1.2c-0.1,0.3,0.2,0.6,0.4,0.8l0.2,0.5l-0.4,0.9c-0.3,0.7-0.4,0.9-0.3,1.1l0.1,0.1
	c0.1,0.1,0.3,0.2,0.6,0.2l0.3,1.5l-0.3,0.8l-0.4,0.7c-0.3,0.7-0.4,1.3-0.1,1.9c0.2,0.4,0.5,0.9,1,1.4l0.9,1.1
	c0.2,0.4,0.3,0.7,0.2,1.1c-0.1,0.5-0.4,1-1.1,1.7c-0.7,0.7-1.3,1.2-2,1.4l-0.6,0.3c-0.3,0.2-0.3,0.4-0.3,0.6l0.2,0.5l0.4,0.4
	c0.2,0.3,0.3,0.7,0.3,1.4c0,0.4,0.1,1,0.3,1.4l0.2,1l-0.3,1l-0.5-0.1l-0.1,0c-0.2,0.1-0.4,0.3-0.3,0.8v0.2c-0.1,0-0.2-0.1-0.4-0.2
	c-0.3-0.4-0.6-0.8-0.7-1.1c-0.1-0.3-0.4-0.4-0.8-0.6c-0.4-0.1-0.5-0.2-0.5-0.2l0-0.1c-0.5-0.8-0.7-1.7-0.6-2.6l-0.1-1.6
	c-0.1-0.7-0.3-1.6-1-1.6c-2,0-3.8-0.5-5.5-1.4l-2.4-1.8c-0.8-0.5-1.6-0.7-2.4-0.7c-0.1,0-0.3,0-0.5,0l-0.8,0.2h-0.5
	c-0.1-0.1-0.3-0.5-0.4-1.3c-0.2-1.1-0.4-1.7-0.9-1.9l-0.8-0.2c-0.3-0.1-0.5-0.2-0.6-0.3c-0.3-0.3-0.4-0.7-0.4-1.4
	c0-0.5,0-1.2,0.1-1.8l0.1-0.2c0.2-0.6,0.4-1.1,0.6-1.5c0.5-0.7,0.7-0.8,0.8-0.8l0.2-0.1l0-0.2c0-0.6,0.3-1.1,0.9-1.6l0.8-0.5
	l0.1-0.6l-0.1-0.1c-0.1-0.1-0.2-0.2-0.2-0.2l1-0.1c0.4,0,0.7-0.3,0.9-0.6c0.1-0.5-0.4-0.9-1.6-1.5l-1.2-0.6c0,0-0.1,0-0.1-0.1
	c0.2,0,0.6,0.1,1.2,0.4c1.1,0.4,1.9,0.6,2.3,0.6c0.1,0,0.1,0,0.1,0l0.2,0l0.1-0.1c0.2-0.2,0.2-0.6,0.1-0.9c0-0.1,0-0.2-0.1-0.3
	c0.2,0.1,0.5,0.2,0.7,0.2h0c0.5,0.1,0.8-0.1,1.4-0.4c0.5-0.3,0.8-0.8,1-1.1c0.2-0.5,0.3-1,0.2-1.5l0-0.2l-0.2,0
	c-0.5,0-0.9-0.1-1.2-0.2l-1.8-1.5c-0.2-0.1-0.4-0.2-0.6-0.3c0.1,0,0.2,0,0.3,0c0.7,0.2,1.6,0.6,2.3,1.3l0.1,0.1l0.8-0.1l1.1-0.7
	l0.7-1l0-0.1c0.2-0.5-0.1-0.8-0.4-0.9c-0.3-0.2-0.4-0.3-0.4-0.3c0-0.1,0.1-0.1,0.4-0.1c0.1,0,0.2,0,0.3,0c0.2,0,0.5,0.1,0.7,0.3
	l0.6,0.4l0.1-0.1c0,0,0.1,0,0.2,0c0.2,0,0.4,0,0.6,0.1c0.3,0.1,0.6,0,0.7-0.1c0.1-0.1,0.2-0.2,0.1-0.4l0-0.1l-0.8-0.8
	c-0.4-0.4-0.5-0.6-0.5-0.6c0,0,0.3,0.1,0.7,0.6l0.7,0.7l0.5,0.4l0.1,0c0.1,0,0.1,0,0.2,0c0.2,0,0.7-0.1,1.6-1.1
	c0.8-0.9,1-1.6,0.9-2.1l-0.3-0.9l-0.5-0.7c-0.5-0.7-0.8-1.4-0.8-2.1c0-0.1,0.1-0.2,0.2-0.3c0,0.1,0.1,0.1,0.2,0.3l0.5,0.7l0.2-0.2
	c0.5-0.5,0.6-1,0.5-1.9l-0.5-0.9l-0.6,0l-0.8-0.7c-0.7-0.5-1.2-0.8-1.8-0.9l-1.4,0l-0.1,0c-0.5,0.2-0.8,0.5-0.8,0.9
	c-0.1,0.4,0.1,0.8,0.6,1.3c0.5,0.6,0.6,1,0.6,1.2l-0.4,0.1c-0.4,0-0.7,0.1-0.7,0.4l-0.6,2.3c-0.3,1-0.7,1.5-0.9,1.6
	c-0.1,0-0.2-0.1-0.4-0.2l-0.9-0.7c-1-1.1-0.4-1.5-0.2-1.6c0.5-0.3,0.7-0.8,0.5-1.4c-0.2-0.5-0.4-0.9-0.8-1.2
	c-0.4-0.4-0.8-0.6-1.3-0.5c-0.5,0-0.7,0.4-0.7,1.2c0,0.7-0.2,1-0.2,1c0,0-0.1,0-0.3-0.3l-0.6-1.2c-0.2-0.6-0.1-0.8-0.1-1
	c0.2-0.5,0.1-0.9-0.2-1.1l-2-0.6c-0.1,0-0.2-0.1,0-0.4c0.1-0.2,0.2-0.3,0.4-0.4l0.6-0.6l0-0.1c0.1-0.3-0.2-0.6-0.8-1.4
	c-0.8-0.8-0.9-1.1-0.9-1.2c0-0.9-0.3-1.6-0.7-2.3c-0.3-0.4-0.8-0.7-1.6-1l-0.1,0l-0.9,0.1c-0.6,0.1-0.7,0.5-0.7,0.8l0,0l0.3,0.9
	l-0.1-0.1h-0.1c-0.5,0-0.8,0.5-1,0.8c-0.3,0.5-0.4,1-0.3,1.3c0,0.2,0.2,0.4,0.4,0.6l0.4,0.3c0,0.1-0.1,0.1-0.1,0.2l-0.4,0.3
	l-0.1,0.1c-0.5,0.7,0,1.2,0.3,1.4l1.9,0.8c0.8,0.2,1.5,0.5,1.8,0.7l0.1,0c0.4,0.2,0.6,0.5,0.5,0.7c-0.1,0.1-0.2,0.3-0.3,0.3
	l-1.1,0.1l-0.1,0c-0.2,0.1-0.3,0.1-0.4,0.3c0,0.1,0,0.1,0,0.3l0.4,0.4c0.7,0.3,0.6,0.6,0.6,0.7c0,0.3-0.3,0.7-0.7,1.1
	c-0.7,0.5-1.1,0.9-1.3,1.3l0,0.1c0,0.1-0.1,0.3,0,0.5v0.8c0,0.3-0.1,0.6-0.2,0.6c0,0,0,0,0,0c-0.5-0.2-0.7-0.5-0.7-1.1l0.1-1.6
	c-0.1-0.5-0.5-0.7-1-0.8l-1.4-0.2l-1.1,0.2l-0.1,0.1c-0.1,0.1-0.1,0.2,0,0.3c0.1,0.2,0.3,0.3,0.7,0.5c0.7,0.3,1.2,0.5,1.3,0.9
	c0,0,0,0.1,0,0.1c0,0-0.1,0.1-0.3,0.1l-1.3-0.6h-3l-0.6,0.2l-0.7,0.1c-0.3,0-0.8-0.2-1.5-0.5l-1.6-0.5l-0.9-0.4
	c-0.3-0.2-0.8-0.5-1-0.5h-0.1l-0.5,0.4l-0.2,0.2c-1,0-1.7,0.1-2,0.5c-0.3,0.3-0.3,0.8,0,1.3c0.3,0.6,0.4,1,0.3,1.4
	c-0.1,0.3-0.2,0.5-0.3,0.6c-0.1,0-0.1,0.1-0.2,0.1c0,0-0.1,0-0.1-0.1c-0.1-0.2-0.2-0.5-0.1-0.9c0-0.4-0.1-1-0.9-1.5
	c-0.6-0.4-1.4-0.6-2.3-0.7l0,0L95,75l-2.6,0c-0.9,0-1.4-0.2-1.6-0.3c-0.1-0.1-0.3-0.4,0.4-0.9l0.1-0.1c0,0,0.1-0.1,1-0.2l0.1,0
	c0.3-0.1,0.3-0.3,0.3-0.4c0-0.3-0.2-0.5-0.7-0.9c-0.5-0.3-1.2-0.7-2.2-1c-0.6-0.2-1.4-0.4-2.4-0.6l-2.4-0.7c-1-0.3-1.7-0.7-2.2-1
	c-0.5-0.4-1-0.6-1.3-0.6c-0.3,0-0.6,0.1-0.8,0.6c-0.4,0.8-0.8,0.9-1.1,0.9h0l-0.4-0.2c0-0.1,0-0.2,0.1-0.3c0.1-0.2,0.2-0.4,0.1-0.6
	c-0.1-0.1-0.3-0.2-0.4-0.2c-0.1,0-0.1,0-0.2,0c-0.5,0.2-0.8,0.7-1,1.4c-0.6-0.1-1-0.4-1.3-1l-0.8-2c-0.2-0.4-0.4-0.7-0.6-0.9
	l-0.1-0.1c-0.3-0.3-0.7-0.3-0.9-0.1l0,0.6l0.7,1.2c0,0,0,0.2-0.8,0.6c-0.3,0.1-1.3,0.6-1.5,0.8L71,69.8c-0.3,0.3-0.7,0.5-1.1,0.5
	c-0.4,0.1-0.9,0.4-1.2,0.8c-0.4,0.5-0.5,0.9-0.5,1.3c0,0.1,0,0.2,0,0.2L68,72.3l-0.5-0.5c-0.3-0.3-0.3-0.3-0.3-0.3l1-0.5l2.9-2.2
	c0.3-0.2,0.7-0.6,1.1-1.1c0.1-0.2,0.2-0.4,0.1-0.6c-0.1-0.1-0.3-0.3-1,0L69.3,68c-0.8,0.4-1.4,0.7-1.8,1.1c0,0-0.3,0.2-2,0.5
	c-0.8,0.2-1.3,0.4-1.4,0.8c-0.1,0.3-0.1,0.5,0.1,0.8c0.2,0.4,0.2,0.5,0.2,0.5c0,0,0,0-0.2,0c-0.1,0-0.2,0-0.3,0l-2-0.7l-1.4-1
	c-0.7-0.6-1.2-0.9-1.7-0.8L57.9,69l-0.1,0c-0.3-0.2-0.7-0.4-1.1-0.7l-0.9-0.6c-0.3-0.2-0.8-0.4-1.2-0.4h0l-0.4,0
	c-2.3,1-5,1.6-8.1,1.6c-2.5,0-4.6-0.4-6.6-1c-1.5,0.6-3.1,1-4.9,1.3c-0.4,0.8-0.9,1.5-1.5,2.2c-0.7,1-1.5,1.9-2.4,2.7
	c0.2,1.2,0.3,2.5,0.2,3.7c0,0.2,0.1,0.3,0.1,0.5c0.2,0.1,0.4,0.2,0.7,0.2h0l1,0.2c0,0,0,0.2-1,0.6c-0.2,0.1-0.4,0.1-0.5,0.2
	c0.2,1.3,0.3,2.6,0.2,3.9c0,0,0.1,0,0.1,0c0,0,0.1,0,0.1,0c0.1,0.2,0.1,0.8-0.1,1.7c-0.2,1-0.4,1.5-0.6,1.6c0,0-0.1,0-0.1,0.1
	c-0.3,1-0.6,1.9-1.1,2.8c1.1,2.9,1.4,6,0.7,9c0.1,0,0.3,0,0.6-0.1l0.9-0.3l0.5-0.2l1.4,0.6l1.3,0.1l-0.1-0.3c0,0,0-0.1,0-0.1
	l0.2,0.2l0.1,0c0.2,0.1,0.6,0,0.8-0.1l0.4-0.1c0,0.1,0,0.4-0.2,0.7l-0.3,1.4c0,0.3-0.2,0.6-0.6,0.9l-0.9,0.9c-1,0.2-1.7,0.7-2.2,1.3
	c-0.2,0.3-0.2,0.5-0.1,0.7c0,0,0,0,0,0.1l-0.3-0.1l-0.9-0.1l-0.9,0.6l-0.7,0.7l0.1,0.2l-0.5-0.4l-0.6,0.5l0.1,0.1h-0.4l-1.1,0.4
	l-0.5,0.4c-0.1,0-0.3,0.1-0.3,0.3c0,0.2,0.1,0.3,0.1,0.3c0.2,0.3,0.5,0.3,0.6,0.3c0.1,0,0.1,0,0.2,0l0.5-0.4l0.1-0.1
	c0-0.1,0.1-0.1,0.1-0.1c0.3,0.2,0.7,0.1,1.1-0.2l0.1-0.1v-0.3l0-0.1l0.6,0.2l0.1-0.3l0.7-0.2l0.7-0.5c0.2-0.2,0.3-0.2,0.5-0.2h0.4
	c0.5,0,0.7-0.2,0.7-0.4v-0.1l1.2-0.1l0.8-0.5l0.6-0.8c0.6-0.7,1.1-1.1,1.7-1.1l0.1,0l2.2-2.2c0.8-0.5,1.7-1,2.2-1.8l0-0.1v-0.1
	c0-0.1,0-0.2-0.2-0.4L41.3,97c-0.2-0.4,0.2-0.6,0.5-0.7l0.2-0.2c0.2-0.2,0.4-0.3,0.6-0.6l0.5-0.9c0.4-0.7,0.9-1.2,1.6-1.5l0.7-0.5
	c0.1-0.1,0.3-0.2,0.4-0.2l0.5,0.3l0.3,0.2c0,0-0.1,0-0.1,0h-0.8l-0.1,0c-0.6,0.3-1.1,0.9-1.4,1.9c-0.3,0.8-0.4,1.6-0.4,2.2
	c0,0.2,0.1,0.3,0.3,0.3c0.2,0,0.5-0.1,1.9-1.4c1.1-0.7,1.5-0.7,1.7-0.7c0,0,0,0,0,0.2l-0.1,0.5l0.5-0.2c0.8-0.4,0.7-0.9,0.5-1.2
	L48.1,94l0-0.2c0.2-0.3,0.3-0.6,0.2-0.9c0-0.1,0-0.1,0-0.1c0,0,0.1,0,0.2,0c0.2,0,0.4,0.1,0.7,0.3l0.8,0.3l0.1,0
	c0.3,0,0.4,0.1,0.5,0.2l1.1,0.9c0.2,0.1,0.4,0.2,0.9,0c0,0,0.1,0,0.1,0c0.4,0.5,1.2,0.7,2.7,0.8l1.4,0.1c0.2,0,0.3,0,0.3,0.1
	c0.1,0.4,0.5,0.7,1.1,0.7c0.5,0,0.9,0,1.3-0.2l0.4-0.1c0,0,0,0.1,0,0.1l-0.1,0.7L60,97l0.1,0.1c0.6,0.2,1,0.5,1.4,0.9l1,0.8l0.7,0.1
	l0.6,0l0.1,0c0.1-0.1,0.2-0.2,0.2-0.3c0-0.1,0-0.2-0.1-0.3c0.4,0.4,0.7,0.6,1,0.6c0.3,0,0.6-0.1,0.6-0.9l0-0.2l2.8,4.3l0.5,1.1
	l0.3,1l1.4,0c0.1,0.1,0.2,0.2,0.4,0.6c0.2,0.4,0.2,0.6,0.1,0.7l-0.1,0.2l0.8,0.2c0,0,0,0.1,0,0.2l-0.1,0.4c1.1,1,2,2.1,2.7,3.4l0,0
	l0.1,0l0,0.2c0.2,0.3,0.3,0.6,0.5,0.9l0.3,0.1l0.1,0c0,0-0.1,0.1-0.2,0.1l-0.1,0.1c0.3,0.7,0.6,1.4,0.8,2.1l0.4,0.1
	c0.1,0.2,0.4,0.5,1.1,0.8c0.4,0.2,0.7,0.3,1,0.3c0,0.3,0.1,0.7,0.5,1c0.2,0.2,0.5,0.2,0.7,0.2c0.1,0.2,0.2,0.4,0.3,0.4
	c0.2,0.1,0.4,0.2,0.6,0.1c0,0.2,0.1,0.3,0.2,0.5h0l0.1,0.2c0,0,0.1,0.1,0.1,0.1l0.5,0.6c0.3,0.8,0.2,1.5-0.2,2l-0.2,0v0l0.2-0.5
	c0.1-0.2,0.2-0.4,0.1-0.5c0-0.1-0.2-0.2-0.3-0.2l-0.5-0.1l-0.5-0.1l-0.6-0.4h-0.7l-0.1,0c-0.2,0.1-0.3,0.2-0.3,0.4
	c-0.1,0.3,0.2,0.8,0.8,1.3l0.1,4.6L79,125l0.2,0.7l-0.6,1c-0.2,0.2-0.1,0.6,0.2,1l0.4,0.7c0.1,0.2,0.1,0.3,0.1,0.5
	c0,0.1,0,0.1,0,0.2l-0.2,0.7c-0.3,0.6,0,1.8,1.1,3.6l2.2,3.2l1.5,1.8l2.2,1.4l0.8,0.3l0.5,0.1c0.1,0,0.4,0.2,0.7,0.9l0.1,0.7h0.2
	l0.3,0.5l0,0c1,0.2,1.9,0.4,2.8,0.6c0,0,0,0,0,0c0.1-0.1,0.2-0.2,0.4-0.2l0.9,0.1c0.2,0.1,0.5,0.5,0.7,0.9c4.4,2,7.2,5.5,8.4,9.5
	l0.2,0.2c0.6,0.4,1,0.9,1.2,1.5l0.4,1.1c0.1,0.3,0.1,0.5,0.1,0.8l-0.2,0.2l-0.2,0.2l0,0.1c0,0.3,0.2,0.5,0.8,0.8
	c0.3,0.1,0.8,0.4,1.3,0.8c0.4,0.3,0.9,0.6,1.5,0.7c0.5,0.1,1,0.3,1.3,0.5l1.2,0.7c0.8,0.5,2.2,1,4.1,1.5c0.7,0.2,1.4,0.2,2.1,0
	l2.1-0.2c0.6,0,1.3,0.4,2,1l1.1,1.1l0-0.2l0.4,0.2l1.8,0.4l0,0l0.5,0.2c0.4,0.1,0.7,0.2,1.1,0.3c1.2,0.3,1.8,0.5,2,0.6
	c0.1,0.1,0.2,0.3,0.5,0.5l1,0.7l0.4,0.9l0.1,0.1l0.1,0.5c0.1,0.3,0.5,0.7,1.1,1l2.9,1.7v-0.1c0.8,0.4,1.3,0.6,1.6,0.7l0.5,0
	c0.1,0,0.1,0.1,0.3,0.2l0.8,0.2l0.1-0.1c0.2-0.1,0.2-0.3,0.2-0.4v-0.1l-0.3-0.4l-0.1-0.2c0,0,0.2-0.1,0.4-0.1l0.9-0.4
	c0.1,0,0.2-0.1,0.3-0.1c0.1,0,0.4,0,0.6,0.4l0.8,1.1v0l0.4,0.5l0.7-1.8l-0.5-0.5c-0.4-0.4-0.7-0.6-1.1-0.7l0,0l-1.7,0l-0.1,0
	c-0.7,0.3-1.2,0.5-1.6,0.8c0,0-0.1,0-0.1,0c-0.1,0-0.5-0.1-1.3-0.7l-0.3-0.2l-1.1-1.1l-0.1-0.3c-0.3-0.5-0.2-1.3,0.1-2.2l0.4-1.3
	c0.1-0.3,0.1-0.6,0-0.9l0.1-0.1l-1.2-0.8l-1.6-0.4l-1.8,0.1l-1.4,0l-0.4,0l0,0l0,0c-0.1-0.1-0.2-0.2-0.2-0.2l0,0l0-0.1
	c0-0.2,0.1-0.4,0.4-0.9l0.6-1.3l0.2-0.8l0,0l0-0.1c0.1-0.5,0.1-0.8-0.1-1.1c-0.1-0.2,0-0.5,0.3-0.8l0.6-0.9l0-0.1
	c-0.1-0.3-0.7-0.5-1.7-0.5c-0.1,0-0.2,0-0.4,0l-2.2,0.4c-0.5,0.2-0.7,0.5-0.8,0.7l-0.3,0.9l-0.2,0.8l-0.6,0.6l-1.1,0.2l-1,0
	l-0.8,0.2l-0.5,0.1l-0.6-0.8l-0.6,0h-0.5l-0.4-0.5l-0.4-0.7l0-0.1c-0.8-0.8-1.3-1.6-1.6-2.4c-0.2-0.7,0-2.1,0.5-4.4l0.1,0l0.1-0.2
	c0.1-0.4,0.1-1.1,0-1.9c-0.1-0.6,0.1-0.7,0.1-0.7c0.5-0.2,0.8-0.5,0.8-0.8l0.4-0.1c0.8,0,1.4-0.2,1.8-0.7l0.2-0.4
	c0.1-0.1,0.2-0.1,0.3-0.2l1.7,0l1.5-0.1v0c0.1,0,0.4,0.1,0.6,0.2l1.5,0.5l1,0.1l0.1,0c0.1,0,0.1,0,0.1,0c0.1,0,0.4,0,0.5-0.2
	c0.1-0.2-0.1-0.5-0.3-0.6c-0.1,0-0.1-0.2-0.1-0.5c0-0.2,0.1-0.3,0.2-0.3l2-0.1l2,0.2l0.3,0.4l0.5,0.5l0.7-0.1l0.5-0.3
	c0.3-0.1,0.5,0,1,0.4c0.3,0.3,0.6,0.8,0.7,1.5c0.1,0.7,0.2,1.3,0.6,1.6l1.2,1.5l1.4,1.4l0.2-0.3c0.4-0.7,0.6-1.5,0.5-2.3
	c0-0.5-0.3-1.2-0.7-2.1l-0.8-1.9c-0.2-0.7-0.2-1.3,0-1.8c0.2-0.7,0.7-1.2,1.3-1.6l0.9-0.6l0.9-0.7l1-0.5l1-0.7
	c0.1-0.1,0.2-0.2,0.3-0.2l0.7-0.2l0.3-0.4l0-0.1c0-0.1,0.1-0.2,0.2-0.2c0.7-0.3,0.9-1,0.6-1.9l-0.3-1l0-0.1c0,0,0.1,0,0.1,0
	c-1.7-7.1,1.5-15.2,9.6-18.3l0.2-0.3l1.3-0.3l0.4-0.7c0.1-0.2,0.1-0.2,0.1-0.3l0.1,0c0.9-0.5,1.8-0.7,2.9-0.6
	c1.2,0.1,2.3,0.1,3.1,0.1c2.2,0,3.4-0.2,3.8-0.7l0.8-0.8c0.4-0.3,0.6-0.4,0.9-0.5l1.2-0.2l1.3-0.5c0.4-0.2,0.6-0.4,0.7-0.7
	C168.2,111.1,168.2,110.9,167.9,110.6z"/>
<path class="st1" d="M142,152.4l-2.4-0.9c-0.3-0.4-0.7-0.6-1.3-0.6c-0.5,0-0.9-0.1-1.1-0.3c-0.9-0.6-1.9-1-3-1c-0.4,0-0.8,0-1.1,0.1
	c-1.3,0.2-2.2,0.7-2.9,1.6l-0.5,0.6l1.8-0.5l1.1-0.5c0.7-0.4,0.8-0.3,0.9-0.3l0.3,0.4l0.2,0.1c0.1,0,0.2,0.1,0.4,0.1
	c0.6,0,1.7,0.3,3.3,1c1.1,0.5,1.7,0.9,1.8,1.1c0,0,0,0.1,0,0.1c-0.1,0.1-0.2,0.2-0.1,0.3l0,0.1c0.1,0.1,0.3,0.3,1.5,0.3
	c0.1,0,0.3,0,0.5,0c1.5-0.1,2.2-0.2,2.5-0.4c0.1-0.1,0.1-0.2,0.1-0.3C143.9,153.2,143.6,153,142,152.4z"/>
<path class="st0" d="M107.5,65.5l1.3,0.3h0.9l0.1-0.2c0.1-0.3-0.1-0.8-0.5-1.2l-0.7-1l-2.1-1.1c-0.9-0.5-1.3-1-1.3-1.5
	c0-0.6-0.1-1.4-0.4-2.5l-0.5-2.2c0-0.6-0.1-1.2-0.3-1.6c-0.2-0.4-0.5-0.7-0.8-0.9l-2.7-1.4l-0.1,0.1c-0.6,0.3-0.7,1.2-0.3,2.7
	l0.4,1.6c0,0.2,0.1,0.4,0.1,0.5c0.1,0.3,0.2,0.6,0.2,0.7c0,0.3-0.1,0.4-0.1,0.5l-0.6-0.6L99.5,56c-0.1-0.7-0.4-1.3-0.8-1.7
	c-0.5-0.4-0.9-0.6-1.2-0.6h0l-0.1,0c-0.2,0-0.3,0.1-0.4,0.2c-0.1,0.2-0.1,0.5,0.1,1c0.2,0.2,0.2,0.4,0.2,0.4h-0.2l-0.6,0.2l-0.1,0
	c-0.3,0.3-0.5,0.4-0.6,0.5l0-0.3l0.1-0.9c0-0.1,0-0.3-1.6-0.9l-0.1,0l-0.7,0.4L93,54.8l-0.2,0.1L92.3,55c0,0-0.1,0-0.1-0.1
	c-0.1-0.1-0.1-0.5,0.2-1.5c0.1-0.3,0-0.5-0.1-0.6c-0.1-0.1-0.3-0.2-0.6-0.2c-0.2,0-0.4,0-0.6,0.1c-0.9,0.2-1.8,0.6-2.6,1.2
	c-1.1,0.7-1.8,1.4-2.1,2.2c-0.4,1-0.3,1.8,0.5,2.6c0.3,0.2,0.6,0.4,1,0.4l2.2,0.6c0,0,0,0,0,0l-2.9,0.8c-0.5,0.1-0.7,0.3-0.8,0.6
	c0,0.2,0.1,0.4,0.5,0.6c0.6,0.3,1.2,0.3,1.6,0.3h0l3.9,0.3c1.1,0.1,2.5,0.4,2.6,1c-0.1,0.1-0.6,0.3-2.6,0.4l-3.3,0.1
	c-0.4,0-1.3,0-1.4,0.6c-0.1,0.3,0,0.6,0.4,1l1.3,1l1.2,0.5c0.7,0.2,1.2,0.4,1.5,0.6l0.6,0.8l0.9,0.7l2.2,0.1l0,0
	c0.6,0,1.8-0.5,3.9-1.5c1.8-0.8,2.3-1,2.5-1c0.4,0.4,1,0.8,1.9,1.2c0.6,0.3,1.3,0.5,1.9,0.5c0.2,0,0.4,0,0.6-0.1
	c0.6-0.2,1-0.5,1.3-0.6c0.4-0.3,0.6-0.6,0.6-0.8c0.1-0.4-0.1-0.6-0.3-0.7l-0.1,0l-1.1,0.1l-0.3-0.1l-0.2-0.3c0-0.1,0-0.2,0-0.3
	C106.6,65.5,107,65.4,107.5,65.5z"/>
<path class="st0" d="M88.2,52.7l0.8-0.5c0.1-0.1,0.4-0.2,0.7-0.3l0.2-0.1l0.1,0c0.2-0.1,0.4-0.3,0.4-0.7c-0.1-0.3-0.3-0.6-0.7-0.9
	l-0.9-0.9c-0.3-0.3-0.8-0.5-1.4-0.5h-1.2c0,0-0.3-0.1-0.7-0.4c-0.1-0.1-0.3-0.2-0.4-0.3c-0.1-0.1-0.3-0.2-0.4-0.3l-0.7-0.5l-3.6,0.2
	l-0.9,0l-1,0.1l-0.1,0.1c-0.1,0.3-0.1,0.7,0,1.1l0.4,1.2c0.4,0.9,0.4,1.8-0.2,2.5c-0.4,0.5-0.6,1.2-0.7,1.9
	c-0.1,0.8-0.3,1.4-0.6,1.8c-0.2,0.4-0.3,0.8,0,1.1L78,58l1,0.4c0.3,0.2,0.4,0.4,0.5,0.7c0.1,0.6,0.5,1.1,1.1,1.6
	c0.3,0.3,0.6,0.5,0.9,0.5c0.2,0,0.6-0.1,0.7-0.7c0.2-0.6,0.4-0.7,0.8-0.7l0.7-0.1c0.3-0.1,0.5-0.2,0.6-0.5c0.1-0.2,0.1-0.7,0.1-1.5
	c-0.1-0.8,0.1-1,0.1-1L88.2,52.7z"/>
<path class="st0" d="M91.4,45.9c0.3,0.3,1,0.5,2,0.5h0.6c0.9,0,1.4-0.1,1.7-0.3c0.5-0.3,1.1-0.5,1.9-0.6c0.2,0,0.4-0.1,0.6-0.1
	c0.6,0,0.7,0.2,0.7,0.3c0,0.2-0.6,0.6-1.1,0.8L96,47.1l-0.7,0.6l-0.1,0.1c-0.2,0.4,0.2,0.7,0.3,0.8c0.4,0.3,1.1,0.6,2,0.6
	c0.4,0,0.9-0.2,1.5-0.6l1.5-1.1c0.6-0.5,1-0.7,1.3-0.9l0.9-0.1l0.4,0.3c0.7,0.4,1.4,0.4,2,0.1c0.7-0.3,1.1-0.7,1.4-1.5
	c0.2-0.5,0.2-1,0.2-1.5c0-0.5-0.2-1-0.4-1.6l-0.5-0.6c-0.1-0.1-0.3-0.3-0.6-0.3c-0.1,0-0.1,0-0.1,0c-0.2,0-0.5,0-0.6,0.4l0,0
	l0.1,0.7c0.1,0.2,0.1,0.4,0.1,0.4c0,0-0.1-0.1-0.2-0.1l-1.3-1.1l-0.1-0.4c-0.5,0.4-1.1,0.8-1.7,1.1c0.2,0.4,0.3,0.8,0.2,1l-0.1,0.2
	l-0.4,0.2c-0.3,0-0.6,0-1,0l-0.7-0.2c0,0-0.1,0-0.1-0.1c-2.2,0.9-4.8,1.4-7.7,1.4c-0.2,0-0.4,0-0.6,0C91,45.3,91.1,45.6,91.4,45.9z"
	/>
<path class="st0" d="M118.8,39.9c0.1,0.2,0.3,0.2,2.1,0.8c0.1,0.1,0.3,0.1,0.4,0.1c0.2,0,0.3-0.1,0.4-0.2c0.2-0.2,0.3-0.5,0.2-1.1
	l-0.2-0.9l-0.5-0.7l-0.8-0.1l-1.1-0.6l-1.3,0l-0.1,0c-0.3,0.2-0.4,0.5-0.2,0.9l0.5,0.6L118.8,39.9z"/>
<path class="st1" d="M151.3,155.1l-0.2-0.1c-0.1-0.1-0.3-0.1-0.3-0.1l-0.6-0.2c-0.1,0-0.2-0.1-0.3-0.1c-0.1,0-0.1,0-0.1,0l-0.1-0.2
	l-0.3-0.3h-0.5l-1-0.4c-0.5-0.2-0.7-0.1-0.9,0l-0.2,0.1l-0.8,0.1l-0.9-0.1c-0.3-0.1-0.4,0-0.5,0.1h-0.3l0.3,0.4
	c0.1,0.2,0.3,0.3,0.6,0.3l0,0l0,0c0,0,0.1,0,0.1,0c0.1,0,0.1,0,0.1,0l0,0.1c0,0.2-0.1,0.4,0,0.5l0.1,0.1c0.1,0.1,0.2,0.2,0.1,0.2
	l-0.8,0l-1-0.2c-0.1,0-0.1,0-0.2,0c-0.2,0-0.3,0.1-0.3,0.2c0,0.1,0,0.2,0.1,0.2c0.1,0.3,0.4,0.4,0.6,0.4c0.1,0,0.1,0,0.1,0l0.7,0
	l1,0.1l0.8,0l0.2,0.3c0.1,0.2,0.3,0.3,0.5,0.3h0.1l0.1,0c0.2-0.1,0.3-0.2,0.4-0.5l0.2-0.4c0,0,0.1,0.1,0.2,0.2
	c0.2,0.2,0.5,0,0.7-0.1l0-0.1c0,0,0.1-0.1,0.5-0.1h0.6c0.3,0.2,0.5,0.2,0.8,0.3l0.1,0l0.5-0.3l0-0.1c0-0.1,0-0.2-0.1-0.3
	C151.5,155.2,151.4,155.1,151.3,155.1z"/>
<path class="st1" d="M154.4,155.4l-0.6,0.1c-0.6-0.1-1-0.1-1.2,0.1l-0.2,0.3l0.2,0.5l0.7,0.1l0.5-0.1l0.6,0.1l0.5-0.3l0.1-0.3l0-0.1
	C155,155.6,154.9,155.4,154.4,155.4z"/>
<path class="st1" d="M140,155.4l-1.6,0.2l0,0.2c0,0.2,0.2,0.4,0.4,0.5l0.7,0.3l0.8-0.2l1.3-0.1l-0.8-0.6L140,155.4z"/>
<path d="M163,104.5c0.1-0.1,0.5-0.2,0.9-0.3c0.2-0.1,0.4-0.1,0.6-0.2c0.1,0,0.2,0,0.2-0.1c-0.3,0.1-0.6,0.3-0.9,0.5
	c-0.2,0.2-0.5,0.3-0.8,0.4l-0.6,0.1C162.5,104.8,162.6,104.6,163,104.5z"/>
</svg>
