<?xml version="1.0" standalone="no"?><!DOCTYPE svg PUBLIC "-//W3C//DTD SVG 1.1//EN" "http://www.w3.org/Graphics/SVG/1.1/DTD/svg11.dtd"><svg t="1500909464680" class="icon" style="" viewBox="0 0 1024 1024" version="1.1" xmlns="http://www.w3.org/2000/svg" p-id="3741" xmlns:xlink="http://www.w3.org/1999/xlink" width="200" height="200"><defs><style type="text/css">html, * { user-select: text !important; }
:not([class*="icon"]):not(i):not(pre):not(code):not(kbd):not(samp):not(var) { font-family: "Microsoft Yahei" !important; text-shadow: rgb(153, 153, 153) 0.05em 0.05em 0.2em !important; }
</style></defs><path d="M511.944 66.05c-246.894 0-447.042 200.146-447.042 447.036 0 246.894 200.148 447.041 447.042 447.041 246.892 0 447.04-200.147 447.04-447.041-0.002-246.89-200.148-447.036-447.04-447.036z m0 833.119c-213.227 0-386.081-172.853-386.081-386.082 0-213.225 172.854-386.08 386.08-386.08 213.225 0 386.08 172.855 386.08 386.08-0.001 213.23-172.856 386.082-386.08 386.082z m289.316-409.15l-34.996-43.746s-17.499-21.872-30.622-37.183c-13.124-15.314-30.623-52.496-30.623-52.496s-8.75-32.81-8.75-41.561c0-8.748-30.623-26.247-30.623-26.247l-17.5-43.746-13.122 10.936-10.936 69.993-10.938 37.186-30.623-19.684-37.185-41.56 8.75-37.187-17.5-4.373-34.996-10.936-32.81 21.872-32.81 34.998-21.875-4.374s-15.31-6.562-28.434 0c-13.122 6.563-30.623 39.373-30.623 39.373h-10.936s-8.748 19.684-13.124 37.183c-4.373 17.501-61.247 39.372-61.247 39.372s-39.37 13.124-54.68 19.687c-15.312 6.56-19.688 56.869-19.688 56.869l4.375 32.812s10.936 41.56 15.312 54.683c4.374 13.124 8.746 26.247 6.562 39.375-2.187 13.121 2.185 54.682 2.185 54.682l61.247 2.188 37.185-24.064h32.81s34.996-21.87 43.747-30.62c8.75-8.753 72.183-6.561 72.183-6.561l45.934 30.62 15.31 28.437 19.687-19.688 21.872-21.873s4.376 21.873 4.376 34.995c0 13.128 24.058 35 32.808 43.749s30.622 28.436 30.622 28.436l41.56 6.563s48.122-6.563 63.436-10.936c15.308-4.374 15.308-24.062 15.308-32.81 0-8.75 17.5-37.186 19.689-50.311 2.188-13.122 28.434-52.495 28.434-52.495s10.938-52.496 10.938-69.995c-0.002-17.499-19.689-41.563-19.689-41.563z" p-id="3742" fill="#0c6406"></path></svg>