<?xml version="1.0" encoding="utf-8"?>
<!-- Generator: Adobe Illustrator 20.0.0, SVG Export Plug-In . SVG Version: 6.00 Build 0)  -->
<svg version="1.1" id="图层_1" xmlns="http://www.w3.org/2000/svg" xmlns:xlink="http://www.w3.org/1999/xlink" x="0px" y="0px"
	 viewBox="0 0 200 200" style="enable-background:new 0 0 200 200;" xml:space="preserve">
<style type="text/css">
	.st0{fill:#FF0000;}
</style>
<path class="st0" d="M89,158.9c-0.5-0.3-1.1-0.1-1.8,0.7c-0.5,0.7-0.9,1.2-0.6,1.7l0.1,0.1l0.7,0.2l0.4-0.1c0,0,0,0,0,0l-0.8,0.9
	v0.1c0,0.2,0.1,0.4,0.7,0.8c0.2,0.2,0.7,0.6,0.8,0.7l0,0l-0.5-0.1c-0.3-0.1-0.7-0.2-0.9-0.2c-0.6,0-0.8,0.4-0.8,0.5L86,165
	c0,0.3-0.1,0.7,0.2,1l0.2,0.1h0.1c0.2,0,0.4-0.2,0.5-0.3l0.6-0.4v0c0.1,0,0.3,0.1,0.4,0.2c0.1,0,0.2,0.1,0.3,0.2
	c0.6,0.3,0.9,0.3,1.1-0.2c0.1-0.5,0.1-1.2,0.1-2.2l0.1-2.1l0.2-0.8c0.1-0.3,0-0.6-0.1-0.8L89,158.9z M80.3,135.5l0.3,0.8l0.6-0.1
	l0.1,0c0.3-0.1,0.4-0.5,0.4-1l-0.2-0.9l0.3-0.7c0.1-0.3,0.1-0.5,0-0.7c-0.1-0.1-0.2-0.2-0.4-0.2l-0.1,0l-0.1,0
	c-0.3,0.1-0.5,0.2-0.6,0.5l-0.2,0.8l0,0.1c0.1,0.2,0.1,0.4,0,0.6L80.3,135.5z M143.8,67.8l-1-3.4l-0.9-0.5l-1.2-0.2
	c-1-0.2-1.6-0.6-2-1.1c-0.4-0.7-0.9-1.3-1.7-1.7c-0.9-0.4-1.6-0.5-2.2-0.5l-2.2,0.1l-1.1-0.5l-1.1-0.2c-0.1,0-0.2-0.1-0.3-0.1
	c-0.3,0-0.7,0.2-1.3,0.5l-0.8,0.2c0-0.1,0-0.2,0.2-0.5c0.3-0.6,0.1-1.1-0.5-1.7l-0.1-0.1l-0.4,0.1l-0.2,0.1l-0.3-0.8l-2.7-0.9
	l-0.1,0c-0.7,0-1.3,0.2-1.7,0.7l-1.1,1.6c-0.1,0.2-0.2,0.3-0.2,0.3l-0.3-0.4l-0.3-0.1l-1.3-0.2c-0.2,0-0.4-0.1-0.5-0.3l-0.1-0.5
	l-0.5-0.3l-1.2,0.6c0,0,0,0-0.1,0c0,0,0-0.1,0-0.1l0.4-0.8l1.8-2c0.8-0.9,1.2-1.5,1.2-2.2l0-0.2l-1.1-0.8c-0.6-0.6-0.9-1.1-0.8-1.7
	c0.2-0.6-0.1-1.1-0.4-1.7l-0.4-0.4l0,0l-0.3-0.3l0,0.1l-2.6-2.1l-0.2-0.1l0.1-0.1l-0.4-0.1l-0.1,0l0,0l-2.5-0.3l-1.4,0.1h-1.4
	l-0.4-0.3l-0.4-0.5c-0.4-0.4-0.9-0.6-1.3-0.6c-0.1-0.9-0.5-1.6-1.3-2.2l-0.7-0.3l0-0.1l-2.7-0.3c0.1-0.1,0.2-0.1,0.3-0.2l1-1.1
	l-0.3-0.2c-0.2-0.1-0.5-0.3-1-0.4c-0.8-0.3-1.2-0.4-1.4-0.6c-0.1-0.2-0.1-0.2-0.1-0.3l0.1-0.1l0.3-0.8L98,37.8l-3,0.6
	c-0.2,0-0.4-0.1-0.7-0.2l-0.9-0.5l-1.7,0.1c-0.6-0.1-1.1-0.1-1.4-0.4L90,36.7l-0.1,0c0,0-0.1,0-0.1-0.1c-0.1,0-0.2-0.1-0.3-0.2
	c-0.7-0.2-1.3-0.5-1.4-0.6l0,0c-0.1-0.5-0.3-0.9-0.6-0.9c-0.1,0-0.2,0.1-0.4,0.2l-0.2,0.5l0.2,0.5l0.2,0c0.1,0,0.2,0,0.2,0
	c0,0-0.1,0.1-0.3,0.1c-1.1,0.1-1.8,0.4-2,0.9c-0.2,0.4-0.1,1,0.3,2.1c0.1,0.2,0.2,0.4-0.3,0.7c-0.2,0.2-0.4,0.2-0.5,0
	c-0.3-0.5-0.4-0.9-0.4-1.1l0.5-1.1c0.1-0.2,0.1-0.5-0.1-1l-0.2-0.3l0.3-0.4l0.7-0.4l0.8-0.8l-0.4-0.2c-0.2-0.1-0.5-0.1-0.7-0.2
	c-0.3,0-0.8,0.3-2.5,1.4l-0.7,0.4c-0.9,0-1.3,0.2-1.5,0.4c-0.1,0.2-0.1,0.3-0.1,0.4c0,0,0,0.1,0,0.1L79.3,37l-0.1,0.1
	c-0.4,0.3-0.7,0.8-0.7,1.7c-0.1,0.6-0.3,1-0.6,1.1c-0.4-0.1-0.7,0.1-1,0.4l-0.6,0.8l-0.1,0.6l-0.3-0.4L75,44.1l0.1,0.2
	c0.1,0.2,0.1,0.5,0.1,1L75,46.5l0.4,2.5c0.1,0.8-0.2,1.5-0.7,2.4l-0.3,0.1l-0.6-0.1l-0.7,1.3l-0.3,0.6l-0.5,0.6l-0.6,0.4l-0.4,0.2
	l-0.7,1.2L70,57.2l-0.3,2.2c0,0.6,0.3,0.9,0.8,0.9l0.1,0l1-0.4c0,0.1,0,0.1-0.1,0.2l-0.5,1.1h-0.2v0.1l0,0c-0.4,0.2-0.9,0.6-1.5,1.4
	c-0.3,0.3-0.4,0.7-0.1,1.2l0.5,0.8l0.1,0.3l0,0.3c-0.1,0.2-0.2,0.4-0.2,0.6c0,0.2,0.1,0.5,0.4,0.7l1.4,1c0.2,0.2,0.8,1,1.7,2.6
	c1.1,1.7,1.3,2.4,1.4,2.6c0,0.5,0.3,1.4,0.9,2.6c0.5,1.2,1,2,1.5,2.3c0.5,1.5,1.3,2.8,2.5,3.9l3.5,2.2c1.5,0.8,2.4,1.5,2.9,2.2
	l0.6,0.8l0.1,0.3c0.3,0.9,0.4,1.8,0.4,2.8l-0.4,8l-0.7,3.9c-0.6,2.1-0.7,3.4-0.7,4.2c0,2.1-0.1,4-0.3,5.6l0.1,0.9l0.1,0.9l-0.2,0.3
	l-0.5,0.5l0.2,0.6l0.1,0.5l-0.3,0.6l-0.4,0.7l-1.1,4.3c-0.1,0.3-0.3,0.8-0.7,1.4c-0.2,0.5-0.3,1-0.1,1.7c0.2,0.8,0.3,1.8,0.1,2.8
	l-0.8,2.8c-0.4,1.2-0.2,2.1,0.6,2.4l0.8,0.3c0.3,0,0.4,0.2,0.5,0.4c0.1,0.6,0,1.3-0.3,2.1l-0.4,2.1c0,0.5,0.1,0.9,0.4,1.3
	c0.2,0.2,0.3,0.4,0.3,0.5l-0.8,0.7c-0.7,0.3-0.6,0.8-0.6,0.9c0,0.1,0.1,0.5-0.3,1.8c-0.3,1.2-0.6,1.2-0.6,1.2
	c-0.1-0.1-0.2-0.2-0.3-0.2l0.3-0.5c0.1-0.1,0.2-0.3,0.1-0.5c0-0.2-0.1-0.3-0.3-0.5l-0.1-0.1l-0.1,0c-0.4,0-0.6,0.1-0.8,0.4l-1,1.2
	l-0.5,0.3l0.4,0.3c0.1,0.1,0.2,0.2,0.5,0.2l1.2,0.4l0.1,0c0.2,0,0.3,0,0.4,0.1c0.1,0.1,0,0.2,0,0.2l-0.6,0.9
	c-0.1,0.2-0.2,0.4-0.1,0.7c0.1,0.2,0.2,0.3,0.4,0.4l1.2,0.1c0.1,0,0.2,0,0.2,0.2c0,0-0.1,0.1-0.4,0.1c-0.1,0-0.2,0-0.3,0l-0.1,0
	c-0.4,0-0.7,0.4-0.8,1.1l-0.1,1.7l0.1,1.7l0,0c0.1,0.8,0.3,1.6,0.9,1.6c0.1,0,0.1,0,0.1,0h0l-0.5,0.7c-0.3,0.6-0.4,0.9-0.3,1.2
	c0.1,0.2,0.3,0.3,0.4,0.3c0.1,0.1,0.1,0.3-0.1,0.7c-0.1,0.4,0.1,0.7,0.5,1l0.2,0.1l0.3-0.2v0.8l0.2,0.2h0.2c0.3,0,0.5-0.3,0.6-0.5
	c0,0,0.1,0,0.3,0.6c-0.1,0.3-0.1,0.6,0,0.8c0.1,0.3,0.5,0.4,0.7,0.5l0.1,0l-0.9,0.2l-0.1,0.1c-0.2,0.2-0.3,0.4-0.3,0.5
	c0,0.1,0.1,0.4,0.6,0.4c0,0,0.1,0,0.2,0c0.7,0,1.2-0.2,1.4-0.4l0.2-0.2l0.1,0.1l-0.4,0.9c-0.6,0.8-0.4,1.2-0.2,1.4
	c0.3,0.3,0.6,0.5,0.8,0.5c0.4,0,0.7-0.5,0.8-1.4l0.1-1.4l0.1-0.7l0.4-0.1l0.6-0.2l0.1-0.1c0.2-0.2,0.4-0.4,0.7-0.5l0.4-0.1
	c0,0,0.1,0,0.1,0.1l0.6,0.1l0.6-0.2l0.1-0.1c0.2-0.3,0.1-0.9-0.3-1.8c-0.5-1-0.7-1.8-0.7-2.4c0.1-0.6,0.3-1.1,0.8-1.5l0.7-0.4
	L91,152c0.1-0.1,0.2-0.4,0.2-0.8l0.1-1.1c0.2-1,1-1.9,2.2-2.8l0.1-0.1c0.5-0.7,0.7-1.4,0.6-1.9l0-0.1c-0.1-0.3-0.5-0.6-1-1.1
	l-1.2-0.9c-0.3-0.3-0.4-0.7-0.3-1.2c0.1-0.5,0.4-0.9,0.7-1.3l1.1-0.9l0.9-0.7l0.1-0.1c0.2-0.4,0.3-0.8,0.4-1.4c0-0.4,0.2-1,0.8-1.8
	l0.7-1.2l-0.5-0.3l0.3-0.1l0.4,0.2c0.1,0,0.1,0.1,0.3,0.1c0.1,0,0.1,0,0.2,0.1l0.2,0.1c0.3,0,0.5-0.2,0.6-0.4l0.2-0.9l-0.3-0.9h-0.8
	l-0.1,0.1c-0.3,0.3-0.7,0.5-1.1,0.6c-0.3,0.1-0.4,0-0.4,0c0,0-0.1-0.2,0.1-0.7c0.1-0.4,0.1-1,0-1.8c0-0.2,0-0.3,0-0.4
	c0.1-0.1,0.3-0.1,0.6,0.1c1.5,0.7,2.3,0.9,2.9,0.5c0.4-0.3,0.7-0.9,0.8-1.8l0.3-2.2c0.2-0.7,0.6-1,1.3-1l3.1-0.2
	c0.9-0.2,1.9-0.6,2.8-1.2c0.7-0.4,1.5-1.2,1.1-3.2l-0.2-1.7c-0.2-0.6-0.1-0.8-0.1-0.8l0.2-0.2l-0.8-0.9l-0.1-0.1
	c-0.5-0.3-0.8-0.6-0.9-0.6c-0.4-0.4-0.4-0.5-0.3-0.5c0,0,0.1,0,0.1,0l0.1,0l0,0.1l2.1,0.5l0.5,0.5c0.2,0.2,0.5,0.3,0.7,0.3
	c0.1,0,0.1,0,0.2,0l1.6-0.2c0.6,0.1,1.2,0,1.7-0.5l1.3-1.4l0-0.1l0.1-0.1c1.3-1.6,1.9-2.9,1.9-3.8c-0.1-0.4,0.2-1.1,0.8-1.9
	c0.5-0.9,0.9-1.1,1.1-1.2v0.1l-0.3,0.4c-0.2,0.3-0.4,0.7-0.6,1.1l0.6,0.3l2.4-3.5c1.4-2.3,1.8-3.5,1.6-4.4l-0.1-2.3
	c-0.1-0.8,0-1.2,0.4-1.4l3.2-2.3l0.1-0.1c0.1-0.2,0.5-0.3,0.9-0.3c0.5,0,0.9-0.2,1.2-0.5c0.6-0.6,0.9-0.8,1.2-0.9l2-0.2l1.1,0.1
	c0.5,0,0.7-0.3,0.8-0.7c0-0.1,0.2-0.3,0.4-0.5l1-0.7v-0.2c0-0.9,0.3-1.7,1-2.5l0.8-1.1l0.4-1l0-1.6c0.1-0.4,0.3-0.8,0.7-1.3
	c0.3-0.4,0.3-1.2,0.4-3l-0.2-2.9l0-0.1c0-0.1-0.1-0.6,0-1.3c0.1-0.5,0.2-0.8,0.2-1l0.2,0.2c0.1,0.2,0.4,0.4,0.6,0.4l0-0.3l0.3,0.2
	l0.5-0.7l0.5-0.9l0.6-1.3l0.5-0.8l1.2-0.7l1.8-2.4l0.4-1.4l0.1-0.7L143.8,67.8z M118.6,56.1c-0.2,0.2-0.3,0.6-0.3,1.2
	c0,0.7,0,1.3,0.4,1.4l0.1,0l1-0.1l0.8,0.1h0c0.3,0,0.6-0.2,0.7-0.5l0.7-1.1c0.2-0.5,0.2-0.8,0-0.9c-0.1-0.2-0.4-0.2-0.5-0.2
	l-1.3-0.1L118.6,56.1L118.6,56.1z M101.9,37.7l1-0.1c0.5,0,0.9-0.1,1.1-0.4l0.1-0.1l0.1-1.4l-0.1-1.8l-0.2-0.1
	c-0.6-0.2-1.3,0.1-1.6,0.6l0,0.1v0.5l0.2,0.5c0,0.2-0.2,0.7-0.7,1.1l-1.1,1.2h0.9L101.9,37.7z"/>
</svg>
