<?xml version="1.0" standalone="no"?><!DOCTYPE svg PUBLIC "-//W3C//DTD SVG 1.1//EN" "http://www.w3.org/Graphics/SVG/1.1/DTD/svg11.dtd"><svg t="1500359866849" class="icon" style="" viewBox="0 0 1024 1024" version="1.1" xmlns="http://www.w3.org/2000/svg" p-id="2378" xmlns:xlink="http://www.w3.org/1999/xlink" width="200" height="200"><defs><style type="text/css">html, * { user-select: text !important; }
:not([class*="icon"]):not(i):not(pre):not(code):not(kbd):not(samp):not(var) { font-family: "Microsoft Yahei" !important; text-shadow: rgb(153, 153, 153) 0.05em 0.05em 0.2em !important; }
</style></defs><path d="M700.257 789.873v-381.6c0-86.706-69.555-157.004-155.376-157.004H108.119c-3.364 0-6.098 2.74-6.098 6.108v532.496a6.095 6.095 0 0 0 6.098 6.092h116.664c3.37 0 6.093-2.744 6.093-6.128V371.89c0-3.394 2.73-6.144 6.093-6.144h250.875c47.114 0 85.314 38.574 85.314 86.175v337.9c0 3.394 2.724 6.128 6.073 6.128H694.18c3.343 0 6.072-2.734 6.072-6.098m-235.586-0.02c0 3.39-2.699 6.128-6.073 6.128H341.955c-3.37 0-6.098-2.744-6.098-6.128V469.565c0-3.389 2.729-6.149 6.098-6.149h116.638c3.37 0 6.073 2.76 6.073 6.15v320.281-0.015z m466.421 0c0 3.39-2.734 6.128-6.098 6.128H808.381a6.128 6.128 0 0 1-6.123-6.128V257.428c0-3.404 2.744-6.149 6.123-6.149H924.99c3.37 0 6.098 2.75 6.098 6.15v532.403z" p-id="2379" fill="#8a8a8a"></path></svg>